<svg width="1129" height="388" viewBox="0 0 1129 388" fill="none" xmlns="http://www.w3.org/2000/svg">
<rect width="1129" height="388" fill="white"/>
<path d="M1017.62 224.844C1012.92 224.844 1008.88 223.884 1005.51 221.962C1002.15 220.021 999.556 217.322 997.731 213.867C995.926 210.392 995.023 206.365 995.023 201.783C995.023 197.183 995.926 193.155 997.731 189.7C999.556 186.225 1002.15 183.527 1005.51 181.605C1008.88 179.664 1012.92 178.693 1017.62 178.693C1022.32 178.693 1026.34 179.664 1029.7 181.605C1033.08 183.527 1035.67 186.225 1037.48 189.7C1039.3 193.155 1040.21 197.183 1040.21 201.783C1040.21 206.365 1039.3 210.392 1037.48 213.867C1035.67 217.322 1033.08 220.021 1029.7 221.962C1026.34 223.884 1022.32 224.844 1017.62 224.844ZM1017.71 214.1C1019.41 214.1 1020.86 213.576 1022.04 212.528C1023.23 211.48 1024.13 210.024 1024.75 208.16C1025.39 206.297 1025.71 204.142 1025.71 201.696C1025.71 199.211 1025.39 197.037 1024.75 195.174C1024.13 193.31 1023.23 191.854 1022.04 190.806C1020.86 189.758 1019.41 189.234 1017.71 189.234C1015.94 189.234 1014.44 189.758 1013.22 190.806C1012.02 191.854 1011.1 193.31 1010.46 195.174C1009.83 197.037 1009.52 199.211 1009.52 201.696C1009.52 204.142 1009.83 206.297 1010.46 208.16C1011.1 210.024 1012.02 211.48 1013.22 212.528C1014.44 213.576 1015.94 214.1 1017.71 214.1Z" fill="#1E1E1E"/>
<path d="M989.957 179.276V189.758H961.742V179.276H989.957ZM967.653 168.561H981.891V209.936C981.891 210.81 982.027 211.518 982.299 212.062C982.59 212.586 983.008 212.965 983.551 213.198C984.095 213.411 984.745 213.518 985.502 213.518C986.046 213.518 986.618 213.469 987.22 213.372C987.841 213.256 988.307 213.159 988.618 213.081L990.772 223.359C990.093 223.554 989.132 223.796 987.89 224.087C986.667 224.379 985.201 224.563 983.493 224.641C980.154 224.796 977.291 224.408 974.903 223.476C972.535 222.525 970.72 221.049 969.458 219.05C968.216 217.051 967.614 214.537 967.653 211.509V168.561Z" fill="#1E1E1E"/>
<path d="M956.597 192.932L943.523 193.281C943.387 192.349 943.018 191.524 942.417 190.806C941.815 190.069 941.029 189.496 940.058 189.088C939.107 188.661 938 188.448 936.739 188.448C935.089 188.448 933.681 188.778 932.517 189.438C931.371 190.098 930.808 190.991 930.828 192.116C930.808 192.99 931.158 193.747 931.876 194.388C932.614 195.028 933.924 195.543 935.807 195.931L944.426 197.561C948.89 198.416 952.21 199.833 954.384 201.813C956.577 203.793 957.684 206.413 957.703 209.674C957.684 212.741 956.771 215.41 954.966 217.682C953.18 219.953 950.734 221.719 947.629 222.981C944.523 224.223 940.97 224.844 936.972 224.844C930.585 224.844 925.548 223.534 921.86 220.914C918.191 218.274 916.094 214.741 915.57 210.315L929.634 209.965C929.945 211.596 930.75 212.838 932.051 213.692C933.351 214.547 935.011 214.974 937.03 214.974C938.855 214.974 940.34 214.634 941.485 213.955C942.63 213.275 943.212 212.372 943.232 211.247C943.212 210.237 942.766 209.432 941.892 208.83C941.019 208.209 939.65 207.723 937.787 207.374L929.983 205.889C925.499 205.074 922.161 203.569 919.967 201.376C917.774 199.163 916.686 196.348 916.706 192.932C916.686 189.942 917.482 187.39 919.094 185.274C920.705 183.139 922.995 181.508 925.965 180.382C928.935 179.256 932.439 178.693 936.477 178.693C942.533 178.693 947.308 179.965 950.802 182.508C954.296 185.031 956.228 188.506 956.597 192.932Z" fill="#1E1E1E"/>
<path d="M889.052 224.844C884.374 224.844 880.336 223.922 876.939 222.078C873.562 220.215 870.96 217.565 869.136 214.129C867.33 210.674 866.428 206.568 866.428 201.813C866.428 197.193 867.34 193.155 869.165 189.7C870.989 186.225 873.562 183.527 876.881 181.605C880.2 179.664 884.112 178.693 888.615 178.693C891.799 178.693 894.71 179.188 897.35 180.178C899.99 181.168 902.271 182.634 904.193 184.575C906.115 186.516 907.609 188.914 908.677 191.767C909.745 194.601 910.279 197.853 910.279 201.521V205.074H871.407V196.804H897.03C897.011 195.29 896.652 193.941 895.953 192.757C895.254 191.573 894.293 190.651 893.07 189.991C891.867 189.311 890.479 188.972 888.906 188.972C887.315 188.972 885.888 189.331 884.626 190.049C883.364 190.748 882.365 191.709 881.627 192.932C880.889 194.135 880.501 195.504 880.462 197.037V205.452C880.462 207.277 880.821 208.878 881.54 210.257C882.258 211.615 883.277 212.673 884.597 213.43C885.917 214.187 887.489 214.566 889.314 214.566C890.576 214.566 891.721 214.391 892.75 214.042C893.779 213.692 894.662 213.178 895.4 212.499C896.137 211.819 896.69 210.985 897.059 209.995L910.133 210.373C909.589 213.304 908.396 215.857 906.552 218.031C904.727 220.186 902.33 221.865 899.36 223.068C896.39 224.252 892.954 224.844 889.052 224.844Z" fill="#1E1E1E"/>
<path d="M792.236 224V179.276H805.776V187.487H806.271C807.203 184.769 808.775 182.624 810.988 181.052C813.201 179.48 815.841 178.693 818.908 178.693C822.014 178.693 824.673 179.489 826.886 181.081C829.099 182.673 830.506 184.808 831.108 187.487H831.574C832.409 184.827 834.039 182.702 836.466 181.11C838.892 179.499 841.755 178.693 845.055 178.693C849.287 178.693 852.723 180.052 855.363 182.77C858.003 185.468 859.323 189.176 859.323 193.893V224H845.084V197.154C845.084 194.921 844.512 193.223 843.366 192.058C842.221 190.874 840.736 190.282 838.912 190.282C836.951 190.282 835.408 190.923 834.282 192.204C833.175 193.466 832.622 195.164 832.622 197.299V224H818.937V197.008C818.937 194.931 818.374 193.291 817.248 192.087C816.122 190.884 814.637 190.282 812.793 190.282C811.551 190.282 810.454 190.583 809.503 191.185C808.552 191.767 807.804 192.602 807.261 193.689C806.737 194.776 806.475 196.057 806.475 197.532V224H792.236Z" fill="#1E1E1E"/>
<path d="M739.185 224.757C736.331 224.757 733.798 224.281 731.585 223.33C729.392 222.36 727.654 220.904 726.373 218.963C725.111 217.002 724.48 214.547 724.48 211.596C724.48 209.111 724.917 207.015 725.791 205.307C726.664 203.598 727.868 202.211 729.401 201.143C730.935 200.075 732.701 199.27 734.701 198.726C736.7 198.163 738.835 197.785 741.106 197.591C743.649 197.358 745.697 197.115 747.25 196.863C748.803 196.591 749.929 196.212 750.628 195.727C751.346 195.222 751.705 194.514 751.705 193.601V193.456C751.705 191.961 751.191 190.806 750.162 189.991C749.133 189.176 747.745 188.768 745.998 188.768C744.115 188.768 742.601 189.176 741.456 189.991C740.311 190.806 739.583 191.932 739.272 193.369L726.14 192.903C726.528 190.185 727.528 187.759 729.139 185.623C730.77 183.469 733.002 181.78 735.836 180.557C738.69 179.315 742.116 178.693 746.115 178.693C748.968 178.693 751.598 179.033 754.005 179.712C756.413 180.372 758.509 181.343 760.295 182.624C762.081 183.886 763.459 185.439 764.43 187.283C765.42 189.127 765.915 191.233 765.915 193.601V224H752.521V217.769H752.171C751.375 219.283 750.356 220.564 749.114 221.612C747.891 222.661 746.445 223.447 744.775 223.971C743.125 224.495 741.262 224.757 739.185 224.757ZM743.581 215.439C745.115 215.439 746.493 215.129 747.716 214.508C748.958 213.887 749.948 213.032 750.686 211.945C751.424 210.839 751.793 209.558 751.793 208.102V203.851C751.385 204.064 750.89 204.258 750.308 204.433C749.745 204.608 749.123 204.773 748.444 204.928C747.765 205.083 747.066 205.219 746.348 205.336C745.629 205.452 744.94 205.559 744.28 205.656C742.941 205.87 741.796 206.2 740.844 206.646C739.913 207.093 739.194 207.675 738.69 208.393C738.204 209.092 737.962 209.927 737.962 210.897C737.962 212.372 738.486 213.498 739.534 214.275C740.602 215.051 741.951 215.439 743.581 215.439Z" fill="#1E1E1E"/>
<path d="M703.274 224V179.276H717.513V224H703.274ZM710.408 174.064C708.409 174.064 706.691 173.404 705.254 172.084C703.818 170.744 703.1 169.133 703.1 167.25C703.1 165.387 703.818 163.795 705.254 162.475C706.691 161.136 708.409 160.466 710.408 160.466C712.427 160.466 714.145 161.136 715.562 162.475C716.998 163.795 717.717 165.387 717.717 167.25C717.717 169.133 716.998 170.744 715.562 172.084C714.145 173.404 712.427 174.064 710.408 174.064Z" fill="#1E1E1E"/>
<path d="M667.161 224.641C663.861 224.641 660.862 223.787 658.164 222.078C655.466 220.37 653.311 217.808 651.7 214.391C650.089 210.975 649.283 206.733 649.283 201.667C649.283 196.407 650.118 192.078 651.787 188.681C653.457 185.284 655.641 182.77 658.339 181.139C661.056 179.509 663.978 178.693 667.103 178.693C669.452 178.693 671.461 179.101 673.13 179.916C674.8 180.712 676.178 181.741 677.265 183.003C678.352 184.265 679.177 185.575 679.74 186.934H680.031V164.368H694.27V224H680.177V216.75H679.74C679.138 218.128 678.284 219.419 677.178 220.622C676.071 221.826 674.683 222.797 673.014 223.534C671.364 224.272 669.413 224.641 667.161 224.641ZM672.111 213.547C673.839 213.547 675.314 213.062 676.537 212.091C677.76 211.101 678.701 209.713 679.361 207.927C680.021 206.141 680.351 204.045 680.351 201.638C680.351 199.192 680.021 197.086 679.361 195.319C678.721 193.553 677.779 192.194 676.537 191.243C675.314 190.292 673.839 189.816 672.111 189.816C670.345 189.816 668.85 190.302 667.627 191.272C666.404 192.243 665.472 193.611 664.832 195.378C664.211 197.144 663.9 199.231 663.9 201.638C663.9 204.045 664.22 206.141 664.861 207.927C665.502 209.713 666.424 211.101 667.627 212.091C668.85 213.062 670.345 213.547 672.111 213.547Z" fill="#1E1E1E"/>
<path d="M622.329 224.844C617.651 224.844 613.613 223.922 610.216 222.078C606.839 220.215 604.238 217.565 602.413 214.129C600.608 210.674 599.705 206.568 599.705 201.813C599.705 197.193 600.617 193.155 602.442 189.7C604.267 186.225 606.839 183.527 610.158 181.605C613.478 179.664 617.389 178.693 621.893 178.693C625.076 178.693 627.988 179.188 630.628 180.178C633.268 181.168 635.549 182.634 637.47 184.575C639.392 186.516 640.887 188.914 641.954 191.767C643.022 194.601 643.556 197.853 643.556 201.521V205.074H604.684V196.804H630.307C630.288 195.29 629.929 193.941 629.23 192.757C628.531 191.573 627.57 190.651 626.347 189.991C625.144 189.311 623.756 188.972 622.184 188.972C620.592 188.972 619.165 189.331 617.903 190.049C616.642 190.748 615.642 191.709 614.904 192.932C614.167 194.135 613.778 195.504 613.74 197.037V205.452C613.74 207.277 614.099 208.878 614.817 210.257C615.535 211.615 616.554 212.673 617.874 213.43C619.194 214.187 620.767 214.566 622.591 214.566C623.853 214.566 624.998 214.391 626.027 214.042C627.056 213.692 627.939 213.178 628.677 212.499C629.415 211.819 629.968 210.985 630.337 209.995L643.41 210.373C642.867 213.304 641.673 215.857 639.829 218.031C638.004 220.186 635.607 221.865 632.637 223.068C629.667 224.252 626.231 224.844 622.329 224.844Z" fill="#1E1E1E"/>
<path d="M525.514 224V179.276H539.053V187.487H539.548C540.48 184.769 542.052 182.624 544.265 181.052C546.478 179.48 549.118 178.693 552.185 178.693C555.291 178.693 557.95 179.489 560.163 181.081C562.376 182.673 563.784 184.808 564.385 187.487H564.851C565.686 184.827 567.317 182.702 569.743 181.11C572.169 179.499 575.033 178.693 578.333 178.693C582.564 178.693 586 180.052 588.64 182.77C591.28 185.468 592.6 189.176 592.6 193.893V224H578.362V197.154C578.362 194.921 577.789 193.223 576.644 192.058C575.499 190.874 574.014 190.282 572.189 190.282C570.228 190.282 568.685 190.923 567.559 192.204C566.453 193.466 565.899 195.164 565.899 197.299V224H552.214V197.008C552.214 194.931 551.651 193.291 550.526 192.087C549.4 190.884 547.915 190.282 546.071 190.282C544.828 190.282 543.731 190.583 542.78 191.185C541.829 191.767 541.082 192.602 540.538 193.689C540.014 194.776 539.752 196.057 539.752 197.532V224H525.514Z" fill="#1E1E1E"/>
<rect x="86" y="88" width="390" height="212" rx="30" fill="#1E1E1E"/>
<path d="M225.902 162.003C225.924 162.003 225.945 162.004 225.967 162.004C233.578 162.097 239.487 164.946 243.692 170.554C244.82 172.035 245.797 173.681 246.627 175.488C249.446 171.318 252.749 168.037 256.539 165.647C258.46 164.462 260.571 163.566 262.871 162.958C265.086 162.319 267.526 162 270.188 162C270.306 162 270.423 162.001 270.54 162.002C270.611 162.002 270.682 162 270.753 162C278.552 162 284.589 164.851 288.866 170.554C289.911 171.926 290.827 173.439 291.616 175.092C294.375 171.109 297.588 167.961 301.258 165.647C305.199 163.216 309.937 162 315.472 162C323.27 162 329.308 164.851 333.585 170.554C337.862 176.172 340 184.139 340 194.453V225.899H313.459V193.069C313.459 185.606 310.818 181.874 305.535 181.874C302.265 181.874 299.623 183.216 297.61 185.899C296.48 187.423 295.683 189.264 295.215 191.421C295.258 192.408 295.281 193.419 295.281 194.453V225.899H268.176V193.069C268.176 189.128 267.506 186.277 266.164 184.516C264.862 182.806 262.967 181.929 260.479 181.879C257.364 181.968 254.835 183.309 252.892 185.899C251.332 188.002 250.402 190.707 250.104 194.017C250.104 194.161 250.107 194.307 250.107 194.453V225.899H223.457V193.069C223.457 189.128 222.786 186.277 221.444 184.516C220.109 182.763 218.152 181.883 215.571 181.874C212.333 181.893 209.715 183.235 207.717 185.899C205.788 188.499 204.824 192.021 204.824 196.465V225.899H178.283V193.069C178.283 189.128 177.612 186.277 176.271 184.516C174.929 182.755 172.958 181.874 170.358 181.874C167.088 181.874 164.446 183.174 162.434 185.773C160.505 188.289 159.541 191.853 159.541 196.465V225.899H133V162.88H159.163V176.591C161.008 171.895 163.65 168.289 167.088 165.773C170.61 163.258 175.013 162 180.296 162C185.333 162 189.622 163.22 193.163 165.659L194.183 166.38C197.514 168.827 199.887 171.937 201.302 175.711C204.153 171.434 207.508 168.079 211.365 165.647C214.845 163.5 218.947 162.302 223.669 162.051C223.959 162.034 224.252 162.022 224.548 162.014C224.56 162.013 224.573 162.013 224.585 162.013C224.877 162.005 225.172 162 225.47 162H225.579C225.687 162 225.795 162.002 225.902 162.003Z" fill="#FFAA00"/>
<path d="M419.418 187.928C424.107 190.619 424.107 197.381 419.418 200.072L379.484 222.985C374.817 225.662 369 222.293 369 216.913L369 171.087C369 165.707 374.817 162.338 379.484 165.015L419.418 187.928Z" fill="#FFAA00"/>
</svg>
