<svg width="957" height="405" viewBox="0 0 957 405" fill="none" xmlns="http://www.w3.org/2000/svg">
<rect width="957" height="405" fill="white"/>
<path d="M804.896 266.844C800.198 266.844 796.161 265.884 792.783 263.962C789.425 262.021 786.833 259.322 785.009 255.867C783.203 252.392 782.301 248.365 782.301 243.783C782.301 239.183 783.203 235.155 785.009 231.7C786.833 228.225 789.425 225.527 792.783 223.605C796.161 221.664 800.198 220.693 804.896 220.693C809.593 220.693 813.621 221.664 816.98 223.605C820.357 225.527 822.949 228.225 824.754 231.7C826.579 235.155 827.491 239.183 827.491 243.783C827.491 248.365 826.579 252.392 824.754 255.867C822.949 259.322 820.357 262.021 816.98 263.962C813.621 265.884 809.593 266.844 804.896 266.844ZM804.983 256.1C806.691 256.1 808.138 255.576 809.322 254.528C810.506 253.48 811.408 252.024 812.03 250.16C812.67 248.297 812.991 246.142 812.991 243.696C812.991 241.211 812.67 239.037 812.03 237.174C811.408 235.31 810.506 233.854 809.322 232.806C808.138 231.758 806.691 231.234 804.983 231.234C803.217 231.234 801.722 231.758 800.499 232.806C799.296 233.854 798.374 235.31 797.733 237.174C797.112 239.037 796.801 241.211 796.801 243.696C796.801 246.142 797.112 248.297 797.733 250.16C798.374 252.024 799.296 253.48 800.499 254.528C801.722 255.576 803.217 256.1 804.983 256.1Z" fill="#1E1E1E"/>
<path d="M777.234 221.276V231.758H749.02V221.276H777.234ZM754.93 210.561H769.169V251.936C769.169 252.81 769.305 253.518 769.576 254.062C769.868 254.586 770.285 254.965 770.828 255.198C771.372 255.411 772.022 255.518 772.779 255.518C773.323 255.518 773.895 255.469 774.497 255.372C775.118 255.256 775.584 255.159 775.895 255.081L778.05 265.359C777.37 265.554 776.409 265.796 775.167 266.087C773.944 266.379 772.478 266.563 770.77 266.641C767.431 266.796 764.568 266.408 762.181 265.476C759.812 264.525 757.997 263.049 756.736 261.05C755.493 259.051 754.892 256.537 754.93 253.509V210.561Z" fill="#1E1E1E"/>
<path d="M743.874 234.932L730.8 235.281C730.664 234.349 730.296 233.524 729.694 232.806C729.092 232.069 728.306 231.496 727.335 231.088C726.384 230.661 725.278 230.448 724.016 230.448C722.366 230.448 720.959 230.778 719.794 231.438C718.649 232.098 718.086 232.991 718.105 234.116C718.086 234.99 718.435 235.747 719.153 236.388C719.891 237.028 721.201 237.543 723.084 237.931L731.703 239.561C736.168 240.416 739.487 241.833 741.661 243.813C743.855 245.793 744.961 248.413 744.981 251.674C744.961 254.741 744.049 257.41 742.243 259.682C740.458 261.953 738.012 263.719 734.906 264.981C731.8 266.223 728.248 266.844 724.249 266.844C717.863 266.844 712.825 265.534 709.137 262.914C705.468 260.274 703.372 256.741 702.848 252.315L716.911 251.965C717.222 253.596 718.028 254.838 719.328 255.692C720.629 256.547 722.288 256.974 724.307 256.974C726.132 256.974 727.617 256.634 728.762 255.955C729.907 255.275 730.49 254.372 730.509 253.247C730.49 252.237 730.043 251.432 729.17 250.83C728.296 250.209 726.928 249.723 725.064 249.374L717.261 247.889C712.777 247.074 709.438 245.569 707.244 243.376C705.051 241.163 703.964 238.348 703.983 234.932C703.964 231.942 704.76 229.39 706.371 227.274C707.982 225.139 710.273 223.508 713.243 222.382C716.213 221.256 719.716 220.693 723.754 220.693C729.81 220.693 734.586 221.965 738.08 224.508C741.574 227.031 743.505 230.506 743.874 234.932Z" fill="#1E1E1E"/>
<path d="M676.329 266.844C671.651 266.844 667.613 265.922 664.216 264.078C660.839 262.215 658.238 259.565 656.413 256.129C654.608 252.674 653.705 248.568 653.705 243.813C653.705 239.193 654.617 235.155 656.442 231.7C658.267 228.225 660.839 225.527 664.158 223.605C667.478 221.664 671.389 220.693 675.893 220.693C679.076 220.693 681.988 221.188 684.628 222.178C687.268 223.168 689.549 224.634 691.47 226.575C693.392 228.516 694.887 230.914 695.954 233.767C697.022 236.601 697.556 239.853 697.556 243.521V247.074H658.684V238.804H684.307C684.288 237.29 683.929 235.941 683.23 234.757C682.531 233.573 681.57 232.651 680.347 231.991C679.144 231.312 677.756 230.972 676.184 230.972C674.592 230.972 673.165 231.331 671.903 232.049C670.642 232.748 669.642 233.709 668.904 234.932C668.167 236.135 667.778 237.504 667.74 239.037V247.452C667.74 249.277 668.099 250.878 668.817 252.257C669.535 253.615 670.554 254.673 671.874 255.43C673.194 256.187 674.767 256.566 676.591 256.566C677.853 256.566 678.998 256.391 680.027 256.042C681.056 255.692 681.939 255.178 682.677 254.499C683.415 253.819 683.968 252.985 684.337 251.995L697.41 252.373C696.867 255.304 695.673 257.857 693.829 260.031C692.004 262.186 689.607 263.865 686.637 265.068C683.667 266.252 680.231 266.844 676.329 266.844Z" fill="#1E1E1E"/>
<path d="M579.514 266V221.276H593.053V229.487H593.548C594.48 226.769 596.052 224.624 598.265 223.052C600.478 221.48 603.118 220.693 606.185 220.693C609.291 220.693 611.95 221.489 614.163 223.081C616.376 224.673 617.784 226.808 618.385 229.487H618.851C619.686 226.827 621.317 224.702 623.743 223.11C626.169 221.499 629.033 220.693 632.333 220.693C636.564 220.693 640 222.052 642.64 224.77C645.28 227.468 646.6 231.176 646.6 235.893V266H632.362V239.154C632.362 236.921 631.789 235.223 630.644 234.058C629.499 232.874 628.014 232.282 626.189 232.282C624.228 232.282 622.685 232.923 621.559 234.204C620.453 235.466 619.899 237.164 619.899 239.299V266H606.214V239.008C606.214 236.931 605.651 235.291 604.526 234.087C603.4 232.884 601.915 232.282 600.071 232.282C598.828 232.282 597.731 232.583 596.78 233.185C595.829 233.767 595.082 234.602 594.538 235.689C594.014 236.776 593.752 238.057 593.752 239.532V266H579.514Z" fill="#1E1E1E"/>
<path d="M793.185 197.757C790.331 197.757 787.798 197.281 785.585 196.33C783.392 195.36 781.654 193.904 780.373 191.963C779.111 190.002 778.48 187.547 778.48 184.596C778.48 182.111 778.917 180.015 779.791 178.307C780.664 176.598 781.868 175.211 783.401 174.143C784.935 173.075 786.701 172.27 788.701 171.726C790.7 171.163 792.835 170.785 795.106 170.591C797.649 170.358 799.697 170.115 801.25 169.863C802.803 169.591 803.929 169.212 804.628 168.727C805.346 168.222 805.705 167.514 805.705 166.601V166.456C805.705 164.961 805.191 163.806 804.162 162.991C803.133 162.176 801.745 161.768 799.998 161.768C798.115 161.768 796.601 162.176 795.456 162.991C794.311 163.806 793.583 164.932 793.272 166.369L780.14 165.903C780.528 163.185 781.528 160.759 783.139 158.623C784.77 156.469 787.002 154.78 789.836 153.557C792.69 152.315 796.116 151.693 800.115 151.693C802.968 151.693 805.598 152.033 808.005 152.712C810.413 153.372 812.509 154.343 814.295 155.624C816.081 156.886 817.459 158.439 818.43 160.283C819.42 162.127 819.915 164.233 819.915 166.601V197H806.521V190.769H806.171C805.375 192.283 804.356 193.564 803.114 194.612C801.891 195.661 800.445 196.447 798.775 196.971C797.125 197.495 795.262 197.757 793.185 197.757ZM797.581 188.44C799.115 188.44 800.493 188.129 801.716 187.508C802.958 186.887 803.948 186.032 804.686 184.945C805.424 183.839 805.793 182.558 805.793 181.102V176.851C805.385 177.064 804.89 177.258 804.308 177.433C803.745 177.608 803.123 177.773 802.444 177.928C801.765 178.083 801.066 178.219 800.348 178.336C799.629 178.452 798.94 178.559 798.28 178.656C796.941 178.87 795.796 179.2 794.844 179.646C793.913 180.093 793.194 180.675 792.69 181.393C792.204 182.092 791.962 182.927 791.962 183.897C791.962 185.372 792.486 186.498 793.534 187.275C794.602 188.051 795.951 188.44 797.581 188.44Z" fill="#1E1E1E"/>
<path d="M757.274 197V152.276H771.513V197H757.274ZM764.408 147.064C762.409 147.064 760.691 146.404 759.254 145.084C757.818 143.744 757.1 142.133 757.1 140.25C757.1 138.387 757.818 136.795 759.254 135.475C760.691 134.136 762.409 133.466 764.408 133.466C766.427 133.466 768.145 134.136 769.562 135.475C770.998 136.795 771.717 138.387 771.717 140.25C771.717 142.133 770.998 143.744 769.562 145.084C768.145 146.404 766.427 147.064 764.408 147.064Z" fill="#1E1E1E"/>
<path d="M721.161 197.64C717.861 197.64 714.862 196.786 712.164 195.078C709.466 193.37 707.311 190.807 705.7 187.391C704.089 183.974 703.283 179.733 703.283 174.667C703.283 169.406 704.118 165.077 705.787 161.68C707.457 158.283 709.641 155.769 712.339 154.139C715.056 152.508 717.978 151.693 721.103 151.693C723.452 151.693 725.461 152.101 727.13 152.916C728.8 153.712 730.178 154.741 731.265 156.002C732.352 157.264 733.177 158.574 733.74 159.933H734.031V137.367H748.27V197H734.177V189.749H733.74C733.138 191.128 732.284 192.418 731.178 193.622C730.071 194.826 728.683 195.796 727.014 196.534C725.364 197.271 723.413 197.64 721.161 197.64ZM726.111 186.546C727.839 186.546 729.314 186.061 730.537 185.091C731.76 184.101 732.701 182.713 733.361 180.927C734.021 179.141 734.351 177.044 734.351 174.637C734.351 172.192 734.021 170.085 733.361 168.319C732.721 166.553 731.779 165.194 730.537 164.243C729.314 163.291 727.839 162.816 726.111 162.816C724.345 162.816 722.85 163.301 721.627 164.272C720.404 165.242 719.472 166.611 718.832 168.377C718.211 170.144 717.9 172.23 717.9 174.637C717.9 177.044 718.22 179.141 718.861 180.927C719.502 182.713 720.424 184.101 721.627 185.091C722.85 186.061 724.345 186.546 726.111 186.546Z" fill="#1E1E1E"/>
<path d="M676.329 197.844C671.651 197.844 667.613 196.922 664.216 195.078C660.839 193.215 658.238 190.565 656.413 187.129C654.608 183.674 653.705 179.568 653.705 174.813C653.705 170.193 654.617 166.155 656.442 162.7C658.267 159.225 660.839 156.527 664.158 154.605C667.478 152.664 671.389 151.693 675.893 151.693C679.076 151.693 681.988 152.188 684.628 153.178C687.268 154.168 689.549 155.634 691.47 157.575C693.392 159.516 694.887 161.914 695.954 164.767C697.022 167.601 697.556 170.853 697.556 174.521V178.074H658.684V169.804H684.307C684.288 168.29 683.929 166.941 683.23 165.757C682.531 164.573 681.57 163.651 680.347 162.991C679.144 162.312 677.756 161.972 676.184 161.972C674.592 161.972 673.165 162.331 671.903 163.049C670.642 163.748 669.642 164.709 668.904 165.932C668.167 167.135 667.778 168.504 667.74 170.037V178.452C667.74 180.277 668.099 181.878 668.817 183.257C669.535 184.615 670.554 185.673 671.874 186.43C673.194 187.187 674.767 187.566 676.591 187.566C677.853 187.566 678.998 187.391 680.027 187.042C681.056 186.692 681.939 186.178 682.677 185.499C683.415 184.819 683.968 183.985 684.337 182.995L697.41 183.373C696.867 186.304 695.673 188.857 693.829 191.031C692.004 193.186 689.607 194.865 686.637 196.068C683.667 197.252 680.231 197.844 676.329 197.844Z" fill="#1E1E1E"/>
<path d="M579.514 197V152.276H593.053V160.487H593.548C594.48 157.769 596.052 155.624 598.265 154.052C600.478 152.48 603.118 151.693 606.185 151.693C609.291 151.693 611.95 152.489 614.163 154.081C616.376 155.673 617.784 157.808 618.385 160.487H618.851C619.686 157.827 621.317 155.702 623.743 154.11C626.169 152.499 629.033 151.693 632.333 151.693C636.564 151.693 640 153.052 642.64 155.77C645.28 158.468 646.6 162.176 646.6 166.893V197H632.362V170.154C632.362 167.921 631.789 166.223 630.644 165.058C629.499 163.874 628.014 163.282 626.189 163.282C624.228 163.282 622.685 163.923 621.559 165.204C620.453 166.466 619.899 168.164 619.899 170.299V197H606.214V170.008C606.214 167.931 605.651 166.291 604.526 165.087C603.4 163.884 601.915 163.282 600.071 163.282C598.828 163.282 597.731 163.583 596.78 164.185C595.829 164.767 595.082 165.602 594.538 166.689C594.014 167.776 593.752 169.057 593.752 170.532V197H579.514Z" fill="#1E1E1E"/>
<rect x="126" y="97" width="390" height="212" rx="30" fill="#1E1E1E"/>
<path d="M265.795 171.002C265.866 171.003 265.937 171.004 266.008 171.005C273.599 171.108 279.494 173.956 283.692 179.554C284.82 181.035 285.797 182.681 286.627 184.489C289.446 180.318 292.749 177.037 296.539 174.647C298.461 173.461 300.574 172.565 302.875 171.957C305.089 171.319 307.527 171 310.188 171C310.309 171 310.429 171.001 310.549 171.002C310.617 171.002 310.685 171 310.753 171C318.552 171 324.589 173.851 328.866 179.554C329.911 180.926 330.827 182.44 331.616 184.093C334.375 180.11 337.588 176.961 341.258 174.647C345.199 172.216 349.937 171 355.472 171C363.27 171 369.308 173.851 373.585 179.554C377.862 185.172 380 193.139 380 203.453V234.899H353.459V202.069C353.459 194.606 350.818 190.874 345.535 190.874C342.265 190.874 339.623 192.216 337.61 194.899C336.481 196.422 335.684 198.262 335.216 200.418C335.259 201.406 335.281 202.418 335.281 203.453V234.899H308.176V202.069C308.176 198.128 307.506 195.277 306.164 193.516C304.862 191.807 302.967 190.929 300.48 190.879C297.364 190.968 294.835 192.308 292.892 194.899C291.33 197.004 290.401 199.712 290.104 203.025C290.104 203.167 290.107 203.31 290.107 203.453V234.899H263.457V202.069C263.457 198.128 262.787 195.277 261.445 193.516C260.11 191.764 258.152 190.883 255.572 190.874C252.334 190.893 249.715 192.235 247.717 194.899C245.788 197.499 244.824 201.021 244.824 205.466V234.899H218.283V202.069C218.283 198.128 217.612 195.277 216.271 193.516C214.929 191.755 212.958 190.874 210.358 190.874C207.088 190.874 204.446 192.174 202.434 194.773C200.505 197.289 199.541 200.854 199.541 205.466V234.899H173V171.881H199.164V185.591C201.009 180.895 203.65 177.289 207.088 174.773C210.61 172.258 215.013 171 220.296 171C225.333 171 229.622 172.22 233.163 174.659L234.183 175.38C237.514 177.827 239.887 180.937 241.302 184.711C244.153 180.434 247.508 177.079 251.365 174.647C254.843 172.502 258.942 171.303 263.66 171.051C264.251 171.017 264.855 171 265.47 171H265.579C265.651 171 265.723 171.001 265.795 171.002Z" fill="#FFAA00"/>
<path d="M459.418 196.928C464.107 199.619 464.107 206.381 459.418 209.072L419.484 231.985C414.817 234.662 409 231.293 409 225.913L409 180.087C409 174.707 414.817 171.338 419.484 174.015L459.418 196.928Z" fill="#FFAA00"/>
</svg>
