<svg width="957" height="405" viewBox="0 0 957 405" fill="none" xmlns="http://www.w3.org/2000/svg">
<rect width="957" height="405" fill="#1E1E1E"/>
<path d="M798.896 266.844C794.198 266.844 790.161 265.884 786.783 263.962C783.425 262.021 780.833 259.322 779.009 255.867C777.203 252.392 776.301 248.365 776.301 243.783C776.301 239.183 777.203 235.155 779.009 231.7C780.833 228.225 783.425 225.527 786.783 223.605C790.161 221.664 794.198 220.693 798.896 220.693C803.593 220.693 807.621 221.664 810.98 223.605C814.357 225.527 816.949 228.225 818.754 231.7C820.579 235.155 821.491 239.183 821.491 243.783C821.491 248.365 820.579 252.392 818.754 255.867C816.949 259.322 814.357 262.021 810.98 263.962C807.621 265.884 803.593 266.844 798.896 266.844ZM798.983 256.1C800.691 256.1 802.138 255.576 803.322 254.528C804.506 253.48 805.408 252.024 806.03 250.16C806.67 248.297 806.991 246.142 806.991 243.696C806.991 241.211 806.67 239.037 806.03 237.174C805.408 235.31 804.506 233.854 803.322 232.806C802.138 231.758 800.691 231.234 798.983 231.234C797.217 231.234 795.722 231.758 794.499 232.806C793.296 233.854 792.374 235.31 791.733 237.174C791.112 239.037 790.801 241.211 790.801 243.696C790.801 246.142 791.112 248.297 791.733 250.16C792.374 252.024 793.296 253.48 794.499 254.528C795.722 255.576 797.217 256.1 798.983 256.1Z" fill="white"/>
<path d="M771.234 221.276V231.758H743.02V221.276H771.234ZM748.93 210.561H763.169V251.936C763.169 252.81 763.305 253.518 763.576 254.062C763.868 254.586 764.285 254.965 764.828 255.198C765.372 255.411 766.022 255.518 766.779 255.518C767.323 255.518 767.895 255.469 768.497 255.372C769.118 255.256 769.584 255.159 769.895 255.081L772.05 265.359C771.37 265.554 770.409 265.796 769.167 266.087C767.944 266.379 766.478 266.563 764.77 266.641C761.431 266.796 758.568 266.408 756.181 265.476C753.812 264.525 751.997 263.049 750.736 261.05C749.493 259.051 748.892 256.537 748.93 253.509V210.561Z" fill="white"/>
<path d="M737.874 234.932L724.8 235.281C724.664 234.349 724.296 233.524 723.694 232.806C723.092 232.069 722.306 231.496 721.335 231.088C720.384 230.661 719.278 230.448 718.016 230.448C716.366 230.448 714.959 230.778 713.794 231.438C712.649 232.098 712.086 232.991 712.105 234.116C712.086 234.99 712.435 235.747 713.153 236.388C713.891 237.028 715.201 237.543 717.084 237.931L725.703 239.561C730.168 240.416 733.487 241.833 735.661 243.813C737.855 245.793 738.961 248.413 738.981 251.674C738.961 254.741 738.049 257.41 736.243 259.682C734.458 261.953 732.012 263.719 728.906 264.981C725.8 266.223 722.248 266.844 718.249 266.844C711.863 266.844 706.825 265.534 703.137 262.914C699.468 260.274 697.372 256.741 696.848 252.315L710.911 251.965C711.222 253.596 712.028 254.838 713.328 255.692C714.629 256.547 716.288 256.974 718.307 256.974C720.132 256.974 721.617 256.634 722.762 255.955C723.907 255.275 724.49 254.372 724.509 253.247C724.49 252.237 724.043 251.432 723.17 250.83C722.296 250.209 720.928 249.723 719.064 249.374L711.261 247.889C706.777 247.074 703.438 245.569 701.244 243.376C699.051 241.163 697.964 238.348 697.983 234.932C697.964 231.942 698.76 229.39 700.371 227.274C701.982 225.139 704.273 223.508 707.243 222.382C710.213 221.256 713.716 220.693 717.754 220.693C723.81 220.693 728.586 221.965 732.08 224.508C735.574 227.031 737.505 230.506 737.874 234.932Z" fill="white"/>
<path d="M670.329 266.844C665.651 266.844 661.613 265.922 658.216 264.078C654.839 262.215 652.238 259.565 650.413 256.129C648.608 252.674 647.705 248.568 647.705 243.813C647.705 239.193 648.617 235.155 650.442 231.7C652.267 228.225 654.839 225.527 658.158 223.605C661.478 221.664 665.389 220.693 669.893 220.693C673.076 220.693 675.988 221.188 678.628 222.178C681.268 223.168 683.549 224.634 685.47 226.575C687.392 228.516 688.887 230.914 689.954 233.767C691.022 236.601 691.556 239.853 691.556 243.521V247.074H652.684V238.804H678.307C678.288 237.29 677.929 235.941 677.23 234.757C676.531 233.573 675.57 232.651 674.347 231.991C673.144 231.312 671.756 230.972 670.184 230.972C668.592 230.972 667.165 231.331 665.903 232.049C664.642 232.748 663.642 233.709 662.904 234.932C662.167 236.135 661.778 237.504 661.74 239.037V247.452C661.74 249.277 662.099 250.878 662.817 252.257C663.535 253.615 664.554 254.673 665.874 255.43C667.194 256.187 668.767 256.566 670.591 256.566C671.853 256.566 672.998 256.391 674.027 256.042C675.056 255.692 675.939 255.178 676.677 254.499C677.415 253.819 677.968 252.985 678.337 251.995L691.41 252.373C690.867 255.304 689.673 257.857 687.829 260.031C686.004 262.186 683.607 263.865 680.637 265.068C677.667 266.252 674.231 266.844 670.329 266.844Z" fill="white"/>
<path d="M573.514 266V221.276H587.053V229.487H587.548C588.48 226.769 590.052 224.624 592.265 223.052C594.478 221.48 597.118 220.693 600.185 220.693C603.291 220.693 605.95 221.489 608.163 223.081C610.376 224.673 611.784 226.808 612.385 229.487H612.851C613.686 226.827 615.317 224.702 617.743 223.11C620.169 221.499 623.033 220.693 626.333 220.693C630.564 220.693 634 222.052 636.64 224.77C639.28 227.468 640.6 231.176 640.6 235.893V266H626.362V239.154C626.362 236.921 625.789 235.223 624.644 234.058C623.499 232.874 622.014 232.282 620.189 232.282C618.228 232.282 616.685 232.923 615.559 234.204C614.453 235.466 613.899 237.164 613.899 239.299V266H600.214V239.008C600.214 236.931 599.651 235.291 598.526 234.087C597.4 232.884 595.915 232.282 594.071 232.282C592.828 232.282 591.731 232.583 590.78 233.185C589.829 233.767 589.082 234.602 588.538 235.689C588.014 236.776 587.752 238.057 587.752 239.532V266H573.514Z" fill="white"/>
<path d="M787.185 197.757C784.331 197.757 781.798 197.281 779.585 196.33C777.392 195.36 775.654 193.904 774.373 191.963C773.111 190.002 772.48 187.547 772.48 184.596C772.48 182.111 772.917 180.015 773.791 178.307C774.664 176.598 775.868 175.211 777.401 174.143C778.935 173.075 780.701 172.27 782.701 171.726C784.7 171.163 786.835 170.785 789.106 170.591C791.649 170.358 793.697 170.115 795.25 169.863C796.803 169.591 797.929 169.212 798.628 168.727C799.346 168.222 799.705 167.514 799.705 166.601V166.456C799.705 164.961 799.191 163.806 798.162 162.991C797.133 162.176 795.745 161.768 793.998 161.768C792.115 161.768 790.601 162.176 789.456 162.991C788.311 163.806 787.583 164.932 787.272 166.369L774.14 165.903C774.528 163.185 775.528 160.759 777.139 158.623C778.77 156.469 781.002 154.78 783.836 153.557C786.69 152.315 790.116 151.693 794.115 151.693C796.968 151.693 799.598 152.033 802.005 152.712C804.413 153.372 806.509 154.343 808.295 155.624C810.081 156.886 811.459 158.439 812.43 160.283C813.42 162.127 813.915 164.233 813.915 166.601V197H800.521V190.769H800.171C799.375 192.283 798.356 193.564 797.114 194.612C795.891 195.661 794.445 196.447 792.775 196.971C791.125 197.495 789.262 197.757 787.185 197.757ZM791.581 188.44C793.115 188.44 794.493 188.129 795.716 187.508C796.958 186.887 797.948 186.032 798.686 184.945C799.424 183.839 799.793 182.558 799.793 181.102V176.851C799.385 177.064 798.89 177.258 798.308 177.433C797.745 177.608 797.123 177.773 796.444 177.928C795.765 178.083 795.066 178.219 794.348 178.336C793.629 178.452 792.94 178.559 792.28 178.656C790.941 178.87 789.796 179.2 788.844 179.646C787.913 180.093 787.194 180.675 786.69 181.393C786.204 182.092 785.962 182.927 785.962 183.897C785.962 185.372 786.486 186.498 787.534 187.275C788.602 188.051 789.951 188.44 791.581 188.44Z" fill="white"/>
<path d="M751.274 197V152.276H765.513V197H751.274ZM758.408 147.064C756.409 147.064 754.691 146.404 753.254 145.084C751.818 143.744 751.1 142.133 751.1 140.25C751.1 138.387 751.818 136.795 753.254 135.475C754.691 134.136 756.409 133.466 758.408 133.466C760.427 133.466 762.145 134.136 763.562 135.475C764.998 136.795 765.717 138.387 765.717 140.25C765.717 142.133 764.998 143.744 763.562 145.084C762.145 146.404 760.427 147.064 758.408 147.064Z" fill="white"/>
<path d="M715.161 197.64C711.861 197.64 708.862 196.786 706.164 195.078C703.466 193.37 701.311 190.807 699.7 187.391C698.089 183.974 697.283 179.733 697.283 174.667C697.283 169.406 698.118 165.077 699.787 161.68C701.457 158.283 703.641 155.769 706.339 154.139C709.056 152.508 711.978 151.693 715.103 151.693C717.452 151.693 719.461 152.101 721.13 152.916C722.8 153.712 724.178 154.741 725.265 156.002C726.352 157.264 727.177 158.574 727.74 159.933H728.031V137.367H742.27V197H728.177V189.749H727.74C727.138 191.128 726.284 192.418 725.178 193.622C724.071 194.826 722.683 195.796 721.014 196.534C719.364 197.271 717.413 197.64 715.161 197.64ZM720.111 186.546C721.839 186.546 723.314 186.061 724.537 185.091C725.76 184.101 726.701 182.713 727.361 180.927C728.021 179.141 728.351 177.044 728.351 174.637C728.351 172.192 728.021 170.085 727.361 168.319C726.721 166.553 725.779 165.194 724.537 164.243C723.314 163.291 721.839 162.816 720.111 162.816C718.345 162.816 716.85 163.301 715.627 164.272C714.404 165.242 713.472 166.611 712.832 168.377C712.211 170.144 711.9 172.23 711.9 174.637C711.9 177.044 712.22 179.141 712.861 180.927C713.502 182.713 714.424 184.101 715.627 185.091C716.85 186.061 718.345 186.546 720.111 186.546Z" fill="white"/>
<path d="M670.329 197.844C665.651 197.844 661.613 196.922 658.216 195.078C654.839 193.215 652.238 190.565 650.413 187.129C648.608 183.674 647.705 179.568 647.705 174.813C647.705 170.193 648.617 166.155 650.442 162.7C652.267 159.225 654.839 156.527 658.158 154.605C661.478 152.664 665.389 151.693 669.893 151.693C673.076 151.693 675.988 152.188 678.628 153.178C681.268 154.168 683.549 155.634 685.47 157.575C687.392 159.516 688.887 161.914 689.954 164.767C691.022 167.601 691.556 170.853 691.556 174.521V178.074H652.684V169.804H678.307C678.288 168.29 677.929 166.941 677.23 165.757C676.531 164.573 675.57 163.651 674.347 162.991C673.144 162.312 671.756 161.972 670.184 161.972C668.592 161.972 667.165 162.331 665.903 163.049C664.642 163.748 663.642 164.709 662.904 165.932C662.167 167.135 661.778 168.504 661.74 170.037V178.452C661.74 180.277 662.099 181.878 662.817 183.257C663.535 184.615 664.554 185.673 665.874 186.43C667.194 187.187 668.767 187.566 670.591 187.566C671.853 187.566 672.998 187.391 674.027 187.042C675.056 186.692 675.939 186.178 676.677 185.499C677.415 184.819 677.968 183.985 678.337 182.995L691.41 183.373C690.867 186.304 689.673 188.857 687.829 191.031C686.004 193.186 683.607 194.865 680.637 196.068C677.667 197.252 674.231 197.844 670.329 197.844Z" fill="white"/>
<path d="M573.514 197V152.276H587.053V160.487H587.548C588.48 157.769 590.052 155.624 592.265 154.052C594.478 152.48 597.118 151.693 600.185 151.693C603.291 151.693 605.95 152.489 608.163 154.081C610.376 155.673 611.784 157.808 612.385 160.487H612.851C613.686 157.827 615.317 155.702 617.743 154.11C620.169 152.499 623.033 151.693 626.333 151.693C630.564 151.693 634 153.052 636.64 155.77C639.28 158.468 640.6 162.176 640.6 166.893V197H626.362V170.154C626.362 167.921 625.789 166.223 624.644 165.058C623.499 163.874 622.014 163.282 620.189 163.282C618.228 163.282 616.685 163.923 615.559 165.204C614.453 166.466 613.899 168.164 613.899 170.299V197H600.214V170.008C600.214 167.931 599.651 166.291 598.526 165.087C597.4 163.884 595.915 163.282 594.071 163.282C592.828 163.282 591.731 163.583 590.78 164.185C589.829 164.767 589.082 165.602 588.538 166.689C588.014 167.776 587.752 169.057 587.752 170.532V197H573.514Z" fill="white"/>
<rect x="132" y="97" width="390" height="212" rx="30" fill="#FFAA00"/>
<path d="M271.795 171.002C271.866 171.003 271.937 171.004 272.008 171.005C279.599 171.108 285.494 173.956 289.692 179.554C290.82 181.035 291.797 182.681 292.627 184.489C295.446 180.318 298.749 177.037 302.539 174.647C304.461 173.461 306.574 172.565 308.875 171.957C311.089 171.319 313.527 171 316.188 171C316.309 171 316.429 171.001 316.549 171.002C316.617 171.002 316.685 171 316.753 171C324.552 171 330.589 173.851 334.866 179.554C335.911 180.926 336.827 182.44 337.616 184.093C340.375 180.11 343.588 176.961 347.258 174.647C351.199 172.216 355.937 171 361.472 171C369.27 171 375.308 173.851 379.585 179.554C383.862 185.172 386 193.139 386 203.453V234.899H359.459V202.069C359.459 194.606 356.818 190.874 351.535 190.874C348.265 190.874 345.623 192.216 343.61 194.899C342.481 196.422 341.684 198.262 341.216 200.418C341.259 201.406 341.281 202.418 341.281 203.453V234.899H314.176V202.069C314.176 198.128 313.506 195.277 312.164 193.516C310.862 191.807 308.967 190.929 306.48 190.879C303.364 190.968 300.835 192.308 298.892 194.899C297.33 197.004 296.401 199.712 296.104 203.025C296.104 203.167 296.107 203.31 296.107 203.453V234.899H269.457V202.069C269.457 198.128 268.787 195.277 267.445 193.516C266.11 191.764 264.152 190.883 261.572 190.874C258.334 190.893 255.715 192.235 253.717 194.899C251.788 197.499 250.824 201.021 250.824 205.466V234.899H224.283V202.069C224.283 198.128 223.612 195.277 222.271 193.516C220.929 191.755 218.958 190.874 216.358 190.874C213.088 190.874 210.446 192.174 208.434 194.773C206.505 197.289 205.541 200.854 205.541 205.466V234.899H179V171.881H205.164V185.591C207.009 180.895 209.65 177.289 213.088 174.773C216.61 172.258 221.013 171 226.296 171C231.333 171 235.622 172.22 239.163 174.659L240.183 175.38C243.514 177.827 245.887 180.937 247.302 184.711C250.153 180.434 253.508 177.079 257.365 174.647C260.843 172.502 264.942 171.303 269.66 171.051C270.251 171.017 270.855 171 271.47 171H271.579C271.651 171 271.723 171.001 271.795 171.002Z" fill="#1E1E1E"/>
<path d="M465.418 196.928C470.107 199.619 470.107 206.381 465.418 209.072L425.484 231.985C420.817 234.662 415 231.293 415 225.913L415 180.087C415 174.707 420.817 171.338 425.484 174.015L465.418 196.928Z" fill="#1E1E1E"/>
</svg>
