<svg width="1129" height="388" viewBox="0 0 1129 388" fill="none" xmlns="http://www.w3.org/2000/svg">
<rect width="1129" height="388" fill="#1E1E1E"/>
<rect x="79" y="88" width="390" height="212" rx="30" fill="white"/>
<path d="M218.902 162.003C218.924 162.003 218.945 162.004 218.967 162.004C226.578 162.097 232.487 164.946 236.692 170.554C237.82 172.035 238.797 173.681 239.627 175.488C242.446 171.318 245.749 168.037 249.539 165.647C251.46 164.462 253.571 163.566 255.871 162.958C258.086 162.319 260.526 162 263.188 162C263.306 162 263.423 162.001 263.54 162.002C263.611 162.002 263.682 162 263.753 162C271.552 162 277.589 164.851 281.866 170.554C282.911 171.926 283.827 173.439 284.616 175.092C287.375 171.109 290.588 167.961 294.258 165.647C298.199 163.216 302.937 162 308.472 162C316.27 162 322.308 164.851 326.585 170.554C330.862 176.172 333 184.139 333 194.453V225.899H306.459V193.069C306.459 185.606 303.818 181.874 298.535 181.874C295.265 181.874 292.623 183.216 290.61 185.899C289.48 187.423 288.683 189.264 288.215 191.421C288.258 192.408 288.281 193.419 288.281 194.453V225.899H261.176V193.069C261.176 189.128 260.506 186.277 259.164 184.516C257.862 182.806 255.967 181.929 253.479 181.879C250.364 181.968 247.835 183.309 245.892 185.899C244.332 188.002 243.402 190.707 243.104 194.017C243.104 194.161 243.107 194.307 243.107 194.453V225.899H216.457V193.069C216.457 189.128 215.786 186.277 214.444 184.516C213.109 182.763 211.152 181.883 208.571 181.874C205.333 181.893 202.715 183.235 200.717 185.899C198.788 188.499 197.824 192.021 197.824 196.465V225.899H171.283V193.069C171.283 189.128 170.612 186.277 169.271 184.516C167.929 182.755 165.958 181.874 163.358 181.874C160.088 181.874 157.446 183.174 155.434 185.773C153.505 188.289 152.541 191.853 152.541 196.465V225.899H126V162.88H152.163V176.591C154.008 171.895 156.65 168.289 160.088 165.773C163.61 163.258 168.013 162 173.296 162C178.333 162 182.622 163.22 186.163 165.659L187.183 166.38C190.514 168.827 192.887 171.937 194.302 175.711C197.153 171.434 200.508 168.079 204.365 165.647C207.845 163.5 211.947 162.302 216.669 162.051C216.959 162.034 217.252 162.022 217.548 162.014C217.56 162.013 217.573 162.013 217.585 162.013C217.877 162.005 218.172 162 218.47 162H218.579C218.687 162 218.795 162.002 218.902 162.003Z" fill="#1E1E1E"/>
<path d="M412.418 187.928C417.107 190.619 417.107 197.381 412.418 200.072L372.484 222.985C367.817 225.662 362 222.293 362 216.913L362 171.087C362 165.707 367.817 162.338 372.484 165.015L412.418 187.928Z" fill="#1E1E1E"/>
<path d="M1025.62 224.844C1020.92 224.844 1016.88 223.884 1013.51 221.962C1010.15 220.021 1007.56 217.322 1005.73 213.867C1003.93 210.392 1003.02 206.365 1003.02 201.783C1003.02 197.183 1003.93 193.155 1005.73 189.7C1007.56 186.225 1010.15 183.527 1013.51 181.605C1016.88 179.664 1020.92 178.693 1025.62 178.693C1030.32 178.693 1034.34 179.664 1037.7 181.605C1041.08 183.527 1043.67 186.225 1045.48 189.7C1047.3 193.155 1048.21 197.183 1048.21 201.783C1048.21 206.365 1047.3 210.392 1045.48 213.867C1043.67 217.322 1041.08 220.021 1037.7 221.962C1034.34 223.884 1030.32 224.844 1025.62 224.844ZM1025.71 214.1C1027.41 214.1 1028.86 213.576 1030.04 212.528C1031.23 211.48 1032.13 210.024 1032.75 208.16C1033.39 206.297 1033.71 204.142 1033.71 201.696C1033.71 199.211 1033.39 197.037 1032.75 195.174C1032.13 193.31 1031.23 191.854 1030.04 190.806C1028.86 189.758 1027.41 189.234 1025.71 189.234C1023.94 189.234 1022.44 189.758 1021.22 190.806C1020.02 191.854 1019.1 193.31 1018.46 195.174C1017.83 197.037 1017.52 199.211 1017.52 201.696C1017.52 204.142 1017.83 206.297 1018.46 208.16C1019.1 210.024 1020.02 211.48 1021.22 212.528C1022.44 213.576 1023.94 214.1 1025.71 214.1Z" fill="white"/>
<path d="M997.957 179.276V189.758H969.742V179.276H997.957ZM975.653 168.561H989.891V209.936C989.891 210.81 990.027 211.518 990.299 212.062C990.59 212.586 991.008 212.965 991.551 213.198C992.095 213.411 992.745 213.518 993.502 213.518C994.046 213.518 994.618 213.469 995.22 213.372C995.841 213.256 996.307 213.159 996.618 213.081L998.772 223.359C998.093 223.554 997.132 223.796 995.89 224.087C994.667 224.379 993.201 224.563 991.493 224.641C988.154 224.796 985.291 224.408 982.903 223.476C980.535 222.525 978.72 221.049 977.458 219.05C976.216 217.051 975.614 214.537 975.653 211.509V168.561Z" fill="white"/>
<path d="M964.597 192.932L951.523 193.281C951.387 192.349 951.018 191.524 950.417 190.806C949.815 190.069 949.029 189.496 948.058 189.088C947.107 188.661 946 188.448 944.739 188.448C943.089 188.448 941.681 188.778 940.517 189.438C939.371 190.098 938.808 190.991 938.828 192.116C938.808 192.99 939.158 193.747 939.876 194.388C940.614 195.028 941.924 195.543 943.807 195.931L952.426 197.561C956.89 198.416 960.21 199.833 962.384 201.813C964.577 203.793 965.684 206.413 965.703 209.674C965.684 212.741 964.771 215.41 962.966 217.682C961.18 219.953 958.734 221.719 955.629 222.981C952.523 224.223 948.97 224.844 944.972 224.844C938.585 224.844 933.548 223.534 929.86 220.914C926.191 218.274 924.094 214.741 923.57 210.315L937.634 209.965C937.945 211.596 938.75 212.838 940.051 213.692C941.351 214.547 943.011 214.974 945.03 214.974C946.855 214.974 948.34 214.634 949.485 213.955C950.63 213.275 951.212 212.372 951.232 211.247C951.212 210.237 950.766 209.432 949.892 208.83C949.019 208.209 947.65 207.723 945.787 207.374L937.983 205.889C933.499 205.074 930.161 203.569 927.967 201.376C925.774 199.163 924.686 196.348 924.706 192.932C924.686 189.942 925.482 187.39 927.094 185.274C928.705 183.139 930.995 181.508 933.965 180.382C936.935 179.256 940.439 178.693 944.477 178.693C950.533 178.693 955.308 179.965 958.802 182.508C962.296 185.031 964.228 188.506 964.597 192.932Z" fill="white"/>
<path d="M897.052 224.844C892.374 224.844 888.336 223.922 884.939 222.078C881.562 220.215 878.96 217.565 877.136 214.129C875.33 210.674 874.428 206.568 874.428 201.813C874.428 197.193 875.34 193.155 877.165 189.7C878.989 186.225 881.562 183.527 884.881 181.605C888.2 179.664 892.112 178.693 896.615 178.693C899.799 178.693 902.71 179.188 905.35 180.178C907.99 181.168 910.271 182.634 912.193 184.575C914.115 186.516 915.609 188.914 916.677 191.767C917.745 194.601 918.279 197.853 918.279 201.521V205.074H879.407V196.804H905.03C905.011 195.29 904.652 193.941 903.953 192.757C903.254 191.573 902.293 190.651 901.07 189.991C899.867 189.311 898.479 188.972 896.906 188.972C895.315 188.972 893.888 189.331 892.626 190.049C891.364 190.748 890.365 191.709 889.627 192.932C888.889 194.135 888.501 195.504 888.462 197.037V205.452C888.462 207.277 888.821 208.878 889.54 210.257C890.258 211.615 891.277 212.673 892.597 213.43C893.917 214.187 895.489 214.566 897.314 214.566C898.576 214.566 899.721 214.391 900.75 214.042C901.779 213.692 902.662 213.178 903.4 212.499C904.137 211.819 904.69 210.985 905.059 209.995L918.133 210.373C917.589 213.304 916.396 215.857 914.552 218.031C912.727 220.186 910.33 221.865 907.36 223.068C904.39 224.252 900.954 224.844 897.052 224.844Z" fill="white"/>
<path d="M800.236 224V179.276H813.776V187.487H814.271C815.203 184.769 816.775 182.624 818.988 181.052C821.201 179.48 823.841 178.693 826.908 178.693C830.014 178.693 832.673 179.489 834.886 181.081C837.099 182.673 838.506 184.808 839.108 187.487H839.574C840.409 184.827 842.039 182.702 844.466 181.11C846.892 179.499 849.755 178.693 853.055 178.693C857.287 178.693 860.723 180.052 863.363 182.77C866.003 185.468 867.323 189.176 867.323 193.893V224H853.084V197.154C853.084 194.921 852.512 193.223 851.366 192.058C850.221 190.874 848.736 190.282 846.912 190.282C844.951 190.282 843.408 190.923 842.282 192.204C841.175 193.466 840.622 195.164 840.622 197.299V224H826.937V197.008C826.937 194.931 826.374 193.291 825.248 192.087C824.122 190.884 822.637 190.282 820.793 190.282C819.551 190.282 818.454 190.583 817.503 191.185C816.552 191.767 815.804 192.602 815.261 193.689C814.737 194.776 814.475 196.057 814.475 197.532V224H800.236Z" fill="white"/>
<path d="M747.185 224.757C744.331 224.757 741.798 224.281 739.585 223.33C737.392 222.36 735.654 220.904 734.373 218.963C733.111 217.002 732.48 214.547 732.48 211.596C732.48 209.111 732.917 207.015 733.791 205.307C734.664 203.598 735.868 202.211 737.401 201.143C738.935 200.075 740.701 199.27 742.701 198.726C744.7 198.163 746.835 197.785 749.106 197.591C751.649 197.358 753.697 197.115 755.25 196.863C756.803 196.591 757.929 196.212 758.628 195.727C759.346 195.222 759.705 194.514 759.705 193.601V193.456C759.705 191.961 759.191 190.806 758.162 189.991C757.133 189.176 755.745 188.768 753.998 188.768C752.115 188.768 750.601 189.176 749.456 189.991C748.311 190.806 747.583 191.932 747.272 193.369L734.14 192.903C734.528 190.185 735.528 187.759 737.139 185.623C738.77 183.469 741.002 181.78 743.836 180.557C746.69 179.315 750.116 178.693 754.115 178.693C756.968 178.693 759.598 179.033 762.005 179.712C764.413 180.372 766.509 181.343 768.295 182.624C770.081 183.886 771.459 185.439 772.43 187.283C773.42 189.127 773.915 191.233 773.915 193.601V224H760.521V217.769H760.171C759.375 219.283 758.356 220.564 757.114 221.612C755.891 222.661 754.445 223.447 752.775 223.971C751.125 224.495 749.262 224.757 747.185 224.757ZM751.581 215.439C753.115 215.439 754.493 215.129 755.716 214.508C756.958 213.887 757.948 213.032 758.686 211.945C759.424 210.839 759.793 209.558 759.793 208.102V203.851C759.385 204.064 758.89 204.258 758.308 204.433C757.745 204.608 757.123 204.773 756.444 204.928C755.765 205.083 755.066 205.219 754.348 205.336C753.629 205.452 752.94 205.559 752.28 205.656C750.941 205.87 749.796 206.2 748.844 206.646C747.913 207.093 747.194 207.675 746.69 208.393C746.204 209.092 745.962 209.927 745.962 210.897C745.962 212.372 746.486 213.498 747.534 214.275C748.602 215.051 749.951 215.439 751.581 215.439Z" fill="white"/>
<path d="M711.274 224V179.276H725.513V224H711.274ZM718.408 174.064C716.409 174.064 714.691 173.404 713.254 172.084C711.818 170.744 711.1 169.133 711.1 167.25C711.1 165.387 711.818 163.795 713.254 162.475C714.691 161.136 716.409 160.466 718.408 160.466C720.427 160.466 722.145 161.136 723.562 162.475C724.998 163.795 725.717 165.387 725.717 167.25C725.717 169.133 724.998 170.744 723.562 172.084C722.145 173.404 720.427 174.064 718.408 174.064Z" fill="white"/>
<path d="M675.161 224.641C671.861 224.641 668.862 223.787 666.164 222.078C663.466 220.37 661.311 217.808 659.7 214.391C658.089 210.975 657.283 206.733 657.283 201.667C657.283 196.407 658.118 192.078 659.787 188.681C661.457 185.284 663.641 182.77 666.339 181.139C669.056 179.509 671.978 178.693 675.103 178.693C677.452 178.693 679.461 179.101 681.13 179.916C682.8 180.712 684.178 181.741 685.265 183.003C686.352 184.265 687.177 185.575 687.74 186.934H688.031V164.368H702.27V224H688.177V216.75H687.74C687.138 218.128 686.284 219.419 685.178 220.622C684.071 221.826 682.683 222.797 681.014 223.534C679.364 224.272 677.413 224.641 675.161 224.641ZM680.111 213.547C681.839 213.547 683.314 213.062 684.537 212.091C685.76 211.101 686.701 209.713 687.361 207.927C688.021 206.141 688.351 204.045 688.351 201.638C688.351 199.192 688.021 197.086 687.361 195.319C686.721 193.553 685.779 192.194 684.537 191.243C683.314 190.292 681.839 189.816 680.111 189.816C678.345 189.816 676.85 190.302 675.627 191.272C674.404 192.243 673.472 193.611 672.832 195.378C672.211 197.144 671.9 199.231 671.9 201.638C671.9 204.045 672.22 206.141 672.861 207.927C673.502 209.713 674.424 211.101 675.627 212.091C676.85 213.062 678.345 213.547 680.111 213.547Z" fill="white"/>
<path d="M630.329 224.844C625.651 224.844 621.613 223.922 618.216 222.078C614.839 220.215 612.238 217.565 610.413 214.129C608.608 210.674 607.705 206.568 607.705 201.813C607.705 197.193 608.617 193.155 610.442 189.7C612.267 186.225 614.839 183.527 618.158 181.605C621.478 179.664 625.389 178.693 629.893 178.693C633.076 178.693 635.988 179.188 638.628 180.178C641.268 181.168 643.549 182.634 645.47 184.575C647.392 186.516 648.887 188.914 649.954 191.767C651.022 194.601 651.556 197.853 651.556 201.521V205.074H612.684V196.804H638.307C638.288 195.29 637.929 193.941 637.23 192.757C636.531 191.573 635.57 190.651 634.347 189.991C633.144 189.311 631.756 188.972 630.184 188.972C628.592 188.972 627.165 189.331 625.903 190.049C624.642 190.748 623.642 191.709 622.904 192.932C622.167 194.135 621.778 195.504 621.74 197.037V205.452C621.74 207.277 622.099 208.878 622.817 210.257C623.535 211.615 624.554 212.673 625.874 213.43C627.194 214.187 628.767 214.566 630.591 214.566C631.853 214.566 632.998 214.391 634.027 214.042C635.056 213.692 635.939 213.178 636.677 212.499C637.415 211.819 637.968 210.985 638.337 209.995L651.41 210.373C650.867 213.304 649.673 215.857 647.829 218.031C646.004 220.186 643.607 221.865 640.637 223.068C637.667 224.252 634.231 224.844 630.329 224.844Z" fill="white"/>
<path d="M533.514 224V179.276H547.053V187.487H547.548C548.48 184.769 550.052 182.624 552.265 181.052C554.478 179.48 557.118 178.693 560.185 178.693C563.291 178.693 565.95 179.489 568.163 181.081C570.376 182.673 571.784 184.808 572.385 187.487H572.851C573.686 184.827 575.317 182.702 577.743 181.11C580.169 179.499 583.033 178.693 586.333 178.693C590.564 178.693 594 180.052 596.64 182.77C599.28 185.468 600.6 189.176 600.6 193.893V224H586.362V197.154C586.362 194.921 585.789 193.223 584.644 192.058C583.499 190.874 582.014 190.282 580.189 190.282C578.228 190.282 576.685 190.923 575.559 192.204C574.453 193.466 573.899 195.164 573.899 197.299V224H560.214V197.008C560.214 194.931 559.651 193.291 558.526 192.087C557.4 190.884 555.915 190.282 554.071 190.282C552.828 190.282 551.731 190.583 550.78 191.185C549.829 191.767 549.082 192.602 548.538 193.689C548.014 194.776 547.752 196.057 547.752 197.532V224H533.514Z" fill="white"/>
</svg>
