<svg width="390" height="212" viewBox="0 0 390 212" fill="none" xmlns="http://www.w3.org/2000/svg">
<rect width="390" height="212" rx="30" fill="#1E1E1E"/>
<path d="M139.902 74.0029C139.924 74.0032 139.945 74.0036 139.967 74.0039C147.578 74.0973 153.487 76.9463 157.692 82.5537C158.82 84.035 159.797 85.6805 160.627 87.4883C163.446 83.3178 166.749 80.0369 170.539 77.6475C172.46 76.462 174.571 75.5656 176.871 74.958C179.086 74.3189 181.526 74 184.188 74C184.306 74 184.423 74.0006 184.54 74.002C184.611 74.0016 184.682 74 184.753 74C192.552 74 198.589 76.8514 202.866 82.5537C203.911 83.9261 204.827 85.4392 205.616 87.0918C208.375 83.1092 211.588 79.9608 215.258 77.6475C219.199 75.2156 223.937 74 229.472 74C237.27 74 243.308 76.8514 247.585 82.5537C251.862 88.1722 254 96.1388 254 106.453V137.899H227.459V105.069C227.459 97.6062 224.818 93.8742 219.535 93.874C216.265 93.874 213.623 95.216 211.61 97.8994C210.48 99.423 209.683 101.264 209.215 103.421C209.258 104.408 209.281 105.419 209.281 106.453V137.899H182.176V105.069C182.176 101.128 181.506 98.2767 180.164 96.5156C178.862 94.8064 176.967 93.9292 174.479 93.8789C171.364 93.9683 168.835 95.3086 166.892 97.8994C165.332 100.002 164.402 102.707 164.104 106.017C164.104 106.161 164.107 106.307 164.107 106.453V137.899H137.457V105.069C137.457 101.128 136.786 98.2766 135.444 96.5156C134.109 94.7634 132.152 93.8827 129.571 93.874C126.333 93.8932 123.715 95.2352 121.717 97.8994C119.788 100.499 118.824 104.021 118.824 108.465V137.899H92.2832V105.069C92.2832 101.128 91.6122 98.2766 90.2705 96.5156C88.9288 94.7546 86.958 93.874 84.3584 93.874C81.088 93.8741 78.4462 95.1739 76.4336 97.7734C74.505 100.289 73.5411 103.853 73.541 108.465V137.899H47V74.8799H73.1631V88.5908C75.0079 83.8949 77.6498 80.2892 81.0879 77.7734C84.6099 75.2577 89.0129 74 94.2959 74C99.3326 74 103.622 75.2195 107.163 77.6592L108.183 78.3799C111.514 80.8268 113.887 83.9375 115.302 87.7109C118.153 83.4342 121.508 80.0793 125.365 77.6475C128.845 75.5002 132.947 74.302 137.669 74.0508C137.959 74.0341 138.252 74.0221 138.548 74.0137C138.56 74.0133 138.573 74.013 138.585 74.0127C138.877 74.0047 139.172 74 139.47 74H139.579C139.687 74 139.795 74.0018 139.902 74.0029Z" fill="#FFAA00"/>
<path d="M333.418 99.9284C338.107 102.619 338.107 109.381 333.418 112.072L293.484 134.985C288.817 137.662 283 134.293 283 128.913L283 83.0868C283 77.7066 288.817 74.3376 293.484 77.0152L333.418 99.9284Z" fill="#FFAA00"/>
</svg>
