<svg width="957" height="859" viewBox="0 0 957 859" fill="none" xmlns="http://www.w3.org/2000/svg">
<rect width="957" height="859" fill="white"/>
<path d="M714.619 607.844C709.921 607.844 705.883 606.884 702.506 604.962C699.148 603.021 696.556 600.322 694.731 596.867C692.926 593.392 692.023 589.365 692.023 584.783C692.023 580.183 692.926 576.155 694.731 572.7C696.556 569.225 699.148 566.527 702.506 564.605C705.883 562.664 709.921 561.693 714.619 561.693C719.316 561.693 723.344 562.664 726.702 564.605C730.08 566.527 732.671 569.225 734.477 572.7C736.301 576.155 737.214 580.183 737.214 584.783C737.214 589.365 736.301 593.392 734.477 596.867C732.671 600.322 730.08 603.021 726.702 604.962C723.344 606.884 719.316 607.844 714.619 607.844ZM714.706 597.1C716.414 597.1 717.86 596.576 719.044 595.528C720.228 594.48 721.131 593.024 721.752 591.16C722.393 589.297 722.713 587.142 722.713 584.696C722.713 582.211 722.393 580.037 721.752 578.174C721.131 576.31 720.228 574.854 719.044 573.806C717.86 572.758 716.414 572.234 714.706 572.234C712.939 572.234 711.445 572.758 710.222 573.806C709.018 574.854 708.096 576.31 707.456 578.174C706.834 580.037 706.524 582.211 706.524 584.696C706.524 587.142 706.834 589.297 707.456 591.16C708.096 593.024 709.018 594.48 710.222 595.528C711.445 596.576 712.939 597.1 714.706 597.1Z" fill="#1E1E1E"/>
<path d="M686.957 562.276V572.758H658.742V562.276H686.957ZM664.653 551.561H678.891V592.936C678.891 593.81 679.027 594.518 679.299 595.062C679.59 595.586 680.008 595.965 680.551 596.198C681.095 596.411 681.745 596.518 682.502 596.518C683.046 596.518 683.618 596.469 684.22 596.372C684.841 596.256 685.307 596.159 685.618 596.081L687.772 606.359C687.093 606.554 686.132 606.796 684.89 607.087C683.667 607.379 682.201 607.563 680.493 607.641C677.154 607.796 674.291 607.408 671.903 606.476C669.535 605.525 667.72 604.049 666.458 602.05C665.216 600.051 664.614 597.537 664.653 594.509V551.561Z" fill="#1E1E1E"/>
<path d="M653.597 575.932L640.523 576.281C640.387 575.349 640.018 574.524 639.417 573.806C638.815 573.069 638.029 572.496 637.058 572.088C636.107 571.661 635 571.448 633.739 571.448C632.089 571.448 630.681 571.778 629.517 572.438C628.371 573.098 627.808 573.991 627.828 575.116C627.808 575.99 628.158 576.747 628.876 577.388C629.614 578.028 630.924 578.543 632.807 578.931L641.426 580.561C645.89 581.416 649.21 582.833 651.384 584.813C653.577 586.793 654.684 589.413 654.703 592.674C654.684 595.741 653.771 598.41 651.966 600.682C650.18 602.953 647.734 604.719 644.629 605.981C641.523 607.223 637.97 607.844 633.972 607.844C627.585 607.844 622.548 606.534 618.86 603.914C615.191 601.274 613.094 597.741 612.57 593.315L626.634 592.965C626.945 594.596 627.75 595.838 629.051 596.692C630.351 597.547 632.011 597.974 634.03 597.974C635.855 597.974 637.34 597.634 638.485 596.955C639.63 596.275 640.212 595.372 640.232 594.247C640.212 593.237 639.766 592.432 638.892 591.83C638.019 591.209 636.65 590.723 634.787 590.374L626.983 588.889C622.499 588.074 619.161 586.569 616.967 584.376C614.774 582.163 613.686 579.348 613.706 575.932C613.686 572.942 614.482 570.39 616.094 568.274C617.705 566.139 619.995 564.508 622.965 563.382C625.935 562.256 629.439 561.693 633.477 561.693C639.533 561.693 644.308 562.965 647.802 565.508C651.296 568.031 653.228 571.506 653.597 575.932Z" fill="#1E1E1E"/>
<path d="M586.052 607.844C581.374 607.844 577.336 606.922 573.939 605.078C570.562 603.215 567.96 600.565 566.136 597.129C564.33 593.674 563.428 589.568 563.428 584.813C563.428 580.193 564.34 576.155 566.165 572.7C567.989 569.225 570.562 566.527 573.881 564.605C577.2 562.664 581.112 561.693 585.615 561.693C588.799 561.693 591.71 562.188 594.35 563.178C596.99 564.168 599.271 565.634 601.193 567.575C603.115 569.516 604.609 571.914 605.677 574.767C606.745 577.601 607.279 580.853 607.279 584.521V588.074H568.407V579.804H594.03C594.011 578.29 593.652 576.941 592.953 575.757C592.254 574.573 591.293 573.651 590.07 572.991C588.867 572.311 587.479 571.972 585.906 571.972C584.315 571.972 582.888 572.331 581.626 573.049C580.364 573.748 579.365 574.709 578.627 575.932C577.889 577.135 577.501 578.504 577.462 580.037V588.452C577.462 590.277 577.821 591.878 578.54 593.257C579.258 594.615 580.277 595.673 581.597 596.43C582.917 597.187 584.489 597.566 586.314 597.566C587.576 597.566 588.721 597.391 589.75 597.042C590.779 596.692 591.662 596.178 592.4 595.499C593.137 594.819 593.69 593.985 594.059 592.995L607.133 593.373C606.589 596.304 605.396 598.857 603.552 601.031C601.727 603.186 599.33 604.865 596.36 606.068C593.39 607.252 589.954 607.844 586.052 607.844Z" fill="#1E1E1E"/>
<path d="M489.236 607V562.276H502.776V570.487H503.271C504.203 567.769 505.775 565.624 507.988 564.052C510.201 562.48 512.841 561.693 515.908 561.693C519.014 561.693 521.673 562.489 523.886 564.081C526.099 565.673 527.506 567.808 528.108 570.487H528.574C529.409 567.827 531.039 565.702 533.466 564.11C535.892 562.499 538.755 561.693 542.055 561.693C546.287 561.693 549.723 563.052 552.363 565.77C555.003 568.468 556.323 572.176 556.323 576.893V607H542.084V580.154C542.084 577.921 541.512 576.223 540.366 575.058C539.221 573.874 537.736 573.282 535.912 573.282C533.951 573.282 532.408 573.923 531.282 575.204C530.175 576.466 529.622 578.164 529.622 580.299V607H515.937V580.008C515.937 577.931 515.374 576.291 514.248 575.087C513.122 573.884 511.637 573.282 509.793 573.282C508.551 573.282 507.454 573.583 506.503 574.185C505.552 574.767 504.804 575.602 504.261 576.689C503.737 577.776 503.475 579.057 503.475 580.532V607H489.236Z" fill="#1E1E1E"/>
<path d="M436.185 607.757C433.331 607.757 430.798 607.281 428.585 606.33C426.392 605.36 424.654 603.904 423.373 601.963C422.111 600.002 421.48 597.547 421.48 594.596C421.48 592.111 421.917 590.015 422.791 588.307C423.664 586.598 424.868 585.211 426.401 584.143C427.935 583.075 429.701 582.27 431.701 581.726C433.7 581.163 435.835 580.785 438.106 580.591C440.649 580.358 442.697 580.115 444.25 579.863C445.803 579.591 446.929 579.212 447.628 578.727C448.346 578.222 448.705 577.514 448.705 576.601V576.456C448.705 574.961 448.191 573.806 447.162 572.991C446.133 572.176 444.745 571.768 442.998 571.768C441.115 571.768 439.601 572.176 438.456 572.991C437.311 573.806 436.583 574.932 436.272 576.369L423.14 575.903C423.528 573.185 424.528 570.759 426.139 568.623C427.77 566.469 430.002 564.78 432.836 563.557C435.69 562.315 439.116 561.693 443.115 561.693C445.968 561.693 448.598 562.033 451.005 562.712C453.413 563.372 455.509 564.343 457.295 565.624C459.081 566.886 460.459 568.439 461.43 570.283C462.42 572.127 462.915 574.233 462.915 576.601V607H449.521V600.769H449.171C448.375 602.283 447.356 603.564 446.114 604.612C444.891 605.661 443.445 606.447 441.775 606.971C440.125 607.495 438.262 607.757 436.185 607.757ZM440.581 598.439C442.115 598.439 443.493 598.129 444.716 597.508C445.958 596.887 446.948 596.032 447.686 594.945C448.424 593.839 448.793 592.558 448.793 591.102V586.851C448.385 587.064 447.89 587.258 447.308 587.433C446.745 587.608 446.123 587.773 445.444 587.928C444.765 588.083 444.066 588.219 443.348 588.336C442.629 588.452 441.94 588.559 441.28 588.656C439.941 588.87 438.796 589.2 437.844 589.646C436.913 590.093 436.194 590.675 435.69 591.393C435.204 592.092 434.962 592.927 434.962 593.897C434.962 595.372 435.486 596.498 436.534 597.275C437.602 598.051 438.951 598.439 440.581 598.439Z" fill="#1E1E1E"/>
<path d="M400.274 607V562.276H414.513V607H400.274ZM407.408 557.064C405.409 557.064 403.691 556.404 402.254 555.084C400.818 553.744 400.1 552.133 400.1 550.25C400.1 548.387 400.818 546.795 402.254 545.475C403.691 544.136 405.409 543.466 407.408 543.466C409.427 543.466 411.145 544.136 412.562 545.475C413.998 546.795 414.717 548.387 414.717 550.25C414.717 552.133 413.998 553.744 412.562 555.084C411.145 556.404 409.427 557.064 407.408 557.064Z" fill="#1E1E1E"/>
<path d="M364.161 607.64C360.861 607.64 357.862 606.786 355.164 605.078C352.466 603.37 350.311 600.807 348.7 597.391C347.089 593.974 346.283 589.733 346.283 584.667C346.283 579.406 347.118 575.077 348.787 571.68C350.457 568.283 352.641 565.769 355.339 564.139C358.056 562.508 360.978 561.693 364.103 561.693C366.452 561.693 368.461 562.101 370.13 562.916C371.8 563.712 373.178 564.741 374.265 566.002C375.352 567.264 376.177 568.574 376.74 569.933H377.031V547.367H391.27V607H377.177V599.749H376.74C376.138 601.128 375.284 602.418 374.178 603.622C373.071 604.826 371.683 605.796 370.014 606.534C368.364 607.271 366.413 607.64 364.161 607.64ZM369.111 596.546C370.839 596.546 372.314 596.061 373.537 595.091C374.76 594.101 375.701 592.713 376.361 590.927C377.021 589.141 377.351 587.044 377.351 584.637C377.351 582.192 377.021 580.085 376.361 578.319C375.721 576.553 374.779 575.194 373.537 574.243C372.314 573.291 370.839 572.816 369.111 572.816C367.345 572.816 365.85 573.301 364.627 574.272C363.404 575.242 362.472 576.611 361.832 578.377C361.211 580.144 360.9 582.23 360.9 584.637C360.9 587.044 361.22 589.141 361.861 590.927C362.502 592.713 363.424 594.101 364.627 595.091C365.85 596.061 367.345 596.546 369.111 596.546Z" fill="#1E1E1E"/>
<path d="M319.329 607.844C314.651 607.844 310.613 606.922 307.216 605.078C303.839 603.215 301.238 600.565 299.413 597.129C297.608 593.674 296.705 589.568 296.705 584.813C296.705 580.193 297.617 576.155 299.442 572.7C301.267 569.225 303.839 566.527 307.158 564.605C310.478 562.664 314.389 561.693 318.893 561.693C322.076 561.693 324.988 562.188 327.628 563.178C330.268 564.168 332.549 565.634 334.47 567.575C336.392 569.516 337.887 571.914 338.954 574.767C340.022 577.601 340.556 580.853 340.556 584.521V588.074H301.684V579.804H327.307C327.288 578.29 326.929 576.941 326.23 575.757C325.531 574.573 324.57 573.651 323.347 572.991C322.144 572.311 320.756 571.972 319.184 571.972C317.592 571.972 316.165 572.331 314.903 573.049C313.642 573.748 312.642 574.709 311.904 575.932C311.167 577.135 310.778 578.504 310.74 580.037V588.452C310.74 590.277 311.099 591.878 311.817 593.257C312.535 594.615 313.554 595.673 314.874 596.43C316.194 597.187 317.767 597.566 319.591 597.566C320.853 597.566 321.998 597.391 323.027 597.042C324.056 596.692 324.939 596.178 325.677 595.499C326.415 594.819 326.968 593.985 327.337 592.995L340.41 593.373C339.867 596.304 338.673 598.857 336.829 601.031C335.004 603.186 332.607 604.865 329.637 606.068C326.667 607.252 323.231 607.844 319.329 607.844Z" fill="#1E1E1E"/>
<path d="M222.514 607V562.276H236.053V570.487H236.548C237.48 567.769 239.052 565.624 241.265 564.052C243.478 562.48 246.118 561.693 249.185 561.693C252.291 561.693 254.95 562.489 257.163 564.081C259.376 565.673 260.784 567.808 261.385 570.487H261.851C262.686 567.827 264.317 565.702 266.743 564.11C269.169 562.499 272.033 561.693 275.333 561.693C279.564 561.693 283 563.052 285.64 565.77C288.28 568.468 289.6 572.176 289.6 576.893V607H275.362V580.154C275.362 577.921 274.789 576.223 273.644 575.058C272.499 573.874 271.014 573.282 269.189 573.282C267.228 573.282 265.685 573.923 264.559 575.204C263.453 576.466 262.899 578.164 262.899 580.299V607H249.214V580.008C249.214 577.931 248.651 576.291 247.526 575.087C246.4 573.884 244.915 573.282 243.071 573.282C241.828 573.282 240.731 573.583 239.78 574.185C238.829 574.767 238.082 575.602 237.538 576.689C237.014 577.776 236.752 579.057 236.752 580.532V607H222.514Z" fill="#1E1E1E"/>
<rect x="284" y="268" width="390" height="212" rx="30" fill="#1E1E1E"/>
<path d="M423.902 342.003C423.924 342.003 423.945 342.004 423.967 342.004C431.578 342.097 437.487 344.946 441.692 350.554C442.82 352.035 443.797 353.681 444.627 355.488C447.446 351.318 450.749 348.037 454.539 345.647C456.46 344.462 458.571 343.566 460.871 342.958C463.086 342.319 465.526 342 468.188 342C468.306 342 468.423 342.001 468.54 342.002C468.611 342.002 468.682 342 468.753 342C476.552 342 482.589 344.851 486.866 350.554C487.911 351.926 488.827 353.439 489.616 355.092C492.375 351.109 495.588 347.961 499.258 345.647C503.199 343.216 507.937 342 513.472 342C521.27 342 527.308 344.851 531.585 350.554C535.862 356.172 538 364.139 538 374.453V405.899H511.459V373.069C511.459 365.606 508.818 361.874 503.535 361.874C500.265 361.874 497.623 363.216 495.61 365.899C494.48 367.423 493.683 369.264 493.215 371.421C493.258 372.408 493.281 373.419 493.281 374.453V405.899H466.176V373.069C466.176 369.128 465.506 366.277 464.164 364.516C462.862 362.806 460.967 361.929 458.479 361.879C455.364 361.968 452.835 363.309 450.892 365.899C449.332 368.002 448.402 370.707 448.104 374.017C448.104 374.161 448.107 374.307 448.107 374.453V405.899H421.457V373.069C421.457 369.128 420.786 366.277 419.444 364.516C418.109 362.763 416.152 361.883 413.571 361.874C410.333 361.893 407.715 363.235 405.717 365.899C403.788 368.499 402.824 372.021 402.824 376.465V405.899H376.283V373.069C376.283 369.128 375.612 366.277 374.271 364.516C372.929 362.755 370.958 361.874 368.358 361.874C365.088 361.874 362.446 363.174 360.434 365.773C358.505 368.289 357.541 371.853 357.541 376.465V405.899H331V342.88H357.163V356.591C359.008 351.895 361.65 348.289 365.088 345.773C368.61 343.258 373.013 342 378.296 342C383.333 342 387.622 343.22 391.163 345.659L392.183 346.38C395.514 348.827 397.887 351.937 399.302 355.711C402.153 351.434 405.508 348.079 409.365 345.647C412.845 343.5 416.947 342.302 421.669 342.051C421.959 342.034 422.252 342.022 422.548 342.014C422.56 342.013 422.573 342.013 422.585 342.013C422.877 342.005 423.172 342 423.47 342H423.579C423.687 342 423.795 342.002 423.902 342.003Z" fill="#FFAA00"/>
<path d="M617.418 367.928C622.107 370.619 622.107 377.381 617.418 380.072L577.484 402.985C572.817 405.662 567 402.293 567 396.913L567 351.087C567 345.707 572.817 342.338 577.484 345.015L617.418 367.928Z" fill="#FFAA00"/>
</svg>
