<svg width="957" height="859" viewBox="0 0 957 859" fill="none" xmlns="http://www.w3.org/2000/svg">
<rect width="957" height="859" fill="#FFAA00"/>
<path d="M714.619 595.844C709.921 595.844 705.883 594.884 702.506 592.962C699.148 591.021 696.556 588.322 694.731 584.867C692.926 581.392 692.023 577.365 692.023 572.783C692.023 568.183 692.926 564.155 694.731 560.7C696.556 557.225 699.148 554.527 702.506 552.605C705.883 550.664 709.921 549.693 714.619 549.693C719.316 549.693 723.344 550.664 726.702 552.605C730.08 554.527 732.671 557.225 734.477 560.7C736.301 564.155 737.214 568.183 737.214 572.783C737.214 577.365 736.301 581.392 734.477 584.867C732.671 588.322 730.08 591.021 726.702 592.962C723.344 594.884 719.316 595.844 714.619 595.844ZM714.706 585.1C716.414 585.1 717.86 584.576 719.044 583.528C720.228 582.48 721.131 581.024 721.752 579.16C722.393 577.297 722.713 575.142 722.713 572.696C722.713 570.211 722.393 568.037 721.752 566.174C721.131 564.31 720.228 562.854 719.044 561.806C717.86 560.758 716.414 560.234 714.706 560.234C712.939 560.234 711.445 560.758 710.222 561.806C709.018 562.854 708.096 564.31 707.456 566.174C706.834 568.037 706.524 570.211 706.524 572.696C706.524 575.142 706.834 577.297 707.456 579.16C708.096 581.024 709.018 582.48 710.222 583.528C711.445 584.576 712.939 585.1 714.706 585.1Z" fill="#1E1E1E"/>
<path d="M686.957 550.276V560.758H658.742V550.276H686.957ZM664.653 539.561H678.891V580.936C678.891 581.81 679.027 582.518 679.299 583.062C679.59 583.586 680.008 583.965 680.551 584.198C681.095 584.411 681.745 584.518 682.502 584.518C683.046 584.518 683.618 584.469 684.22 584.372C684.841 584.256 685.307 584.159 685.618 584.081L687.772 594.359C687.093 594.554 686.132 594.796 684.89 595.087C683.667 595.379 682.201 595.563 680.493 595.641C677.154 595.796 674.291 595.408 671.903 594.476C669.535 593.525 667.72 592.049 666.458 590.05C665.216 588.051 664.614 585.537 664.653 582.509V539.561Z" fill="#1E1E1E"/>
<path d="M653.597 563.932L640.523 564.281C640.387 563.349 640.018 562.524 639.417 561.806C638.815 561.069 638.029 560.496 637.058 560.088C636.107 559.661 635 559.448 633.739 559.448C632.089 559.448 630.681 559.778 629.517 560.438C628.371 561.098 627.808 561.991 627.828 563.116C627.808 563.99 628.158 564.747 628.876 565.388C629.614 566.028 630.924 566.543 632.807 566.931L641.426 568.561C645.89 569.416 649.21 570.833 651.384 572.813C653.577 574.793 654.684 577.413 654.703 580.674C654.684 583.741 653.771 586.41 651.966 588.682C650.18 590.953 647.734 592.719 644.629 593.981C641.523 595.223 637.97 595.844 633.972 595.844C627.585 595.844 622.548 594.534 618.86 591.914C615.191 589.274 613.094 585.741 612.57 581.315L626.634 580.965C626.945 582.596 627.75 583.838 629.051 584.692C630.351 585.547 632.011 585.974 634.03 585.974C635.855 585.974 637.34 585.634 638.485 584.955C639.63 584.275 640.212 583.372 640.232 582.247C640.212 581.237 639.766 580.432 638.892 579.83C638.019 579.209 636.65 578.723 634.787 578.374L626.983 576.889C622.499 576.074 619.161 574.569 616.967 572.376C614.774 570.163 613.686 567.348 613.706 563.932C613.686 560.942 614.482 558.39 616.094 556.274C617.705 554.139 619.995 552.508 622.965 551.382C625.935 550.256 629.439 549.693 633.477 549.693C639.533 549.693 644.308 550.965 647.802 553.508C651.296 556.031 653.228 559.506 653.597 563.932Z" fill="#1E1E1E"/>
<path d="M586.052 595.844C581.374 595.844 577.336 594.922 573.939 593.078C570.562 591.215 567.96 588.565 566.136 585.129C564.33 581.674 563.428 577.568 563.428 572.813C563.428 568.193 564.34 564.155 566.165 560.7C567.989 557.225 570.562 554.527 573.881 552.605C577.2 550.664 581.112 549.693 585.615 549.693C588.799 549.693 591.71 550.188 594.35 551.178C596.99 552.168 599.271 553.634 601.193 555.575C603.115 557.516 604.609 559.914 605.677 562.767C606.745 565.601 607.279 568.853 607.279 572.521V576.074H568.407V567.804H594.03C594.011 566.29 593.652 564.941 592.953 563.757C592.254 562.573 591.293 561.651 590.07 560.991C588.867 560.311 587.479 559.972 585.906 559.972C584.315 559.972 582.888 560.331 581.626 561.049C580.364 561.748 579.365 562.709 578.627 563.932C577.889 565.135 577.501 566.504 577.462 568.037V576.452C577.462 578.277 577.821 579.878 578.54 581.257C579.258 582.615 580.277 583.673 581.597 584.43C582.917 585.187 584.489 585.566 586.314 585.566C587.576 585.566 588.721 585.391 589.75 585.042C590.779 584.692 591.662 584.178 592.4 583.499C593.137 582.819 593.69 581.985 594.059 580.995L607.133 581.373C606.589 584.304 605.396 586.857 603.552 589.031C601.727 591.186 599.33 592.865 596.36 594.068C593.39 595.252 589.954 595.844 586.052 595.844Z" fill="#1E1E1E"/>
<path d="M489.236 595V550.276H502.776V558.487H503.271C504.203 555.769 505.775 553.624 507.988 552.052C510.201 550.48 512.841 549.693 515.908 549.693C519.014 549.693 521.673 550.489 523.886 552.081C526.099 553.673 527.506 555.808 528.108 558.487H528.574C529.409 555.827 531.039 553.702 533.466 552.11C535.892 550.499 538.755 549.693 542.055 549.693C546.287 549.693 549.723 551.052 552.363 553.77C555.003 556.468 556.323 560.176 556.323 564.893V595H542.084V568.154C542.084 565.921 541.512 564.223 540.366 563.058C539.221 561.874 537.736 561.282 535.912 561.282C533.951 561.282 532.408 561.923 531.282 563.204C530.175 564.466 529.622 566.164 529.622 568.299V595H515.937V568.008C515.937 565.931 515.374 564.291 514.248 563.087C513.122 561.884 511.637 561.282 509.793 561.282C508.551 561.282 507.454 561.583 506.503 562.185C505.552 562.767 504.804 563.602 504.261 564.689C503.737 565.776 503.475 567.057 503.475 568.532V595H489.236Z" fill="#1E1E1E"/>
<path d="M436.185 595.757C433.331 595.757 430.798 595.281 428.585 594.33C426.392 593.36 424.654 591.904 423.373 589.963C422.111 588.002 421.48 585.547 421.48 582.596C421.48 580.111 421.917 578.015 422.791 576.307C423.664 574.598 424.868 573.211 426.401 572.143C427.935 571.075 429.701 570.27 431.701 569.726C433.7 569.163 435.835 568.785 438.106 568.591C440.649 568.358 442.697 568.115 444.25 567.863C445.803 567.591 446.929 567.212 447.628 566.727C448.346 566.222 448.705 565.514 448.705 564.601V564.456C448.705 562.961 448.191 561.806 447.162 560.991C446.133 560.176 444.745 559.768 442.998 559.768C441.115 559.768 439.601 560.176 438.456 560.991C437.311 561.806 436.583 562.932 436.272 564.369L423.14 563.903C423.528 561.185 424.528 558.759 426.139 556.623C427.77 554.469 430.002 552.78 432.836 551.557C435.69 550.315 439.116 549.693 443.115 549.693C445.968 549.693 448.598 550.033 451.005 550.712C453.413 551.372 455.509 552.343 457.295 553.624C459.081 554.886 460.459 556.439 461.43 558.283C462.42 560.127 462.915 562.233 462.915 564.601V595H449.521V588.769H449.171C448.375 590.283 447.356 591.564 446.114 592.612C444.891 593.661 443.445 594.447 441.775 594.971C440.125 595.495 438.262 595.757 436.185 595.757ZM440.581 586.439C442.115 586.439 443.493 586.129 444.716 585.508C445.958 584.887 446.948 584.032 447.686 582.945C448.424 581.839 448.793 580.558 448.793 579.102V574.851C448.385 575.064 447.89 575.258 447.308 575.433C446.745 575.608 446.123 575.773 445.444 575.928C444.765 576.083 444.066 576.219 443.348 576.336C442.629 576.452 441.94 576.559 441.28 576.656C439.941 576.87 438.796 577.2 437.844 577.646C436.913 578.093 436.194 578.675 435.69 579.393C435.204 580.092 434.962 580.927 434.962 581.897C434.962 583.372 435.486 584.498 436.534 585.275C437.602 586.051 438.951 586.439 440.581 586.439Z" fill="#1E1E1E"/>
<path d="M400.274 595V550.276H414.513V595H400.274ZM407.408 545.064C405.409 545.064 403.691 544.404 402.254 543.084C400.818 541.744 400.1 540.133 400.1 538.25C400.1 536.387 400.818 534.795 402.254 533.475C403.691 532.136 405.409 531.466 407.408 531.466C409.427 531.466 411.145 532.136 412.562 533.475C413.998 534.795 414.717 536.387 414.717 538.25C414.717 540.133 413.998 541.744 412.562 543.084C411.145 544.404 409.427 545.064 407.408 545.064Z" fill="#1E1E1E"/>
<path d="M364.161 595.64C360.861 595.64 357.862 594.786 355.164 593.078C352.466 591.37 350.311 588.807 348.7 585.391C347.089 581.974 346.283 577.733 346.283 572.667C346.283 567.406 347.118 563.077 348.787 559.68C350.457 556.283 352.641 553.769 355.339 552.139C358.056 550.508 360.978 549.693 364.103 549.693C366.452 549.693 368.461 550.101 370.13 550.916C371.8 551.712 373.178 552.741 374.265 554.002C375.352 555.264 376.177 556.574 376.74 557.933H377.031V535.367H391.27V595H377.177V587.749H376.74C376.138 589.128 375.284 590.418 374.178 591.622C373.071 592.826 371.683 593.796 370.014 594.534C368.364 595.271 366.413 595.64 364.161 595.64ZM369.111 584.546C370.839 584.546 372.314 584.061 373.537 583.091C374.76 582.101 375.701 580.713 376.361 578.927C377.021 577.141 377.351 575.044 377.351 572.637C377.351 570.192 377.021 568.085 376.361 566.319C375.721 564.553 374.779 563.194 373.537 562.243C372.314 561.291 370.839 560.816 369.111 560.816C367.345 560.816 365.85 561.301 364.627 562.272C363.404 563.242 362.472 564.611 361.832 566.377C361.211 568.144 360.9 570.23 360.9 572.637C360.9 575.044 361.22 577.141 361.861 578.927C362.502 580.713 363.424 582.101 364.627 583.091C365.85 584.061 367.345 584.546 369.111 584.546Z" fill="#1E1E1E"/>
<path d="M319.329 595.844C314.651 595.844 310.613 594.922 307.216 593.078C303.839 591.215 301.238 588.565 299.413 585.129C297.608 581.674 296.705 577.568 296.705 572.813C296.705 568.193 297.617 564.155 299.442 560.7C301.267 557.225 303.839 554.527 307.158 552.605C310.478 550.664 314.389 549.693 318.893 549.693C322.076 549.693 324.988 550.188 327.628 551.178C330.268 552.168 332.549 553.634 334.47 555.575C336.392 557.516 337.887 559.914 338.954 562.767C340.022 565.601 340.556 568.853 340.556 572.521V576.074H301.684V567.804H327.307C327.288 566.29 326.929 564.941 326.23 563.757C325.531 562.573 324.57 561.651 323.347 560.991C322.144 560.311 320.756 559.972 319.184 559.972C317.592 559.972 316.165 560.331 314.903 561.049C313.642 561.748 312.642 562.709 311.904 563.932C311.167 565.135 310.778 566.504 310.74 568.037V576.452C310.74 578.277 311.099 579.878 311.817 581.257C312.535 582.615 313.554 583.673 314.874 584.43C316.194 585.187 317.767 585.566 319.591 585.566C320.853 585.566 321.998 585.391 323.027 585.042C324.056 584.692 324.939 584.178 325.677 583.499C326.415 582.819 326.968 581.985 327.337 580.995L340.41 581.373C339.867 584.304 338.673 586.857 336.829 589.031C335.004 591.186 332.607 592.865 329.637 594.068C326.667 595.252 323.231 595.844 319.329 595.844Z" fill="#1E1E1E"/>
<path d="M222.514 595V550.276H236.053V558.487H236.548C237.48 555.769 239.052 553.624 241.265 552.052C243.478 550.48 246.118 549.693 249.185 549.693C252.291 549.693 254.95 550.489 257.163 552.081C259.376 553.673 260.784 555.808 261.385 558.487H261.851C262.686 555.827 264.317 553.702 266.743 552.11C269.169 550.499 272.033 549.693 275.333 549.693C279.564 549.693 283 551.052 285.64 553.77C288.28 556.468 289.6 560.176 289.6 564.893V595H275.362V568.154C275.362 565.921 274.789 564.223 273.644 563.058C272.499 561.874 271.014 561.282 269.189 561.282C267.228 561.282 265.685 561.923 264.559 563.204C263.453 564.466 262.899 566.164 262.899 568.299V595H249.214V568.008C249.214 565.931 248.651 564.291 247.526 563.087C246.4 561.884 244.915 561.282 243.071 561.282C241.828 561.282 240.731 561.583 239.78 562.185C238.829 562.767 238.082 563.602 237.538 564.689C237.014 565.776 236.752 567.057 236.752 568.532V595H222.514Z" fill="#1E1E1E"/>
<rect x="284" y="244" width="390" height="212" rx="30" fill="#1E1E1E"/>
<path d="M423.902 318.003C423.924 318.003 423.945 318.004 423.967 318.004C431.578 318.097 437.487 320.946 441.692 326.554C442.82 328.035 443.797 329.681 444.627 331.488C447.446 327.318 450.749 324.037 454.539 321.647C456.46 320.462 458.571 319.566 460.871 318.958C463.086 318.319 465.526 318 468.188 318C468.306 318 468.423 318.001 468.54 318.002C468.611 318.002 468.682 318 468.753 318C476.552 318 482.589 320.851 486.866 326.554C487.911 327.926 488.827 329.439 489.616 331.092C492.375 327.109 495.588 323.961 499.258 321.647C503.199 319.216 507.937 318 513.472 318C521.27 318 527.308 320.851 531.585 326.554C535.862 332.172 538 340.139 538 350.453V381.899H511.459V349.069C511.459 341.606 508.818 337.874 503.535 337.874C500.265 337.874 497.623 339.216 495.61 341.899C494.48 343.423 493.683 345.264 493.215 347.421C493.258 348.408 493.281 349.419 493.281 350.453V381.899H466.176V349.069C466.176 345.128 465.506 342.277 464.164 340.516C462.862 338.806 460.967 337.929 458.479 337.879C455.364 337.968 452.835 339.309 450.892 341.899C449.332 344.002 448.402 346.707 448.104 350.017C448.104 350.161 448.107 350.307 448.107 350.453V381.899H421.457V349.069C421.457 345.128 420.786 342.277 419.444 340.516C418.109 338.763 416.152 337.883 413.571 337.874C410.333 337.893 407.715 339.235 405.717 341.899C403.788 344.499 402.824 348.021 402.824 352.465V381.899H376.283V349.069C376.283 345.128 375.612 342.277 374.271 340.516C372.929 338.755 370.958 337.874 368.358 337.874C365.088 337.874 362.446 339.174 360.434 341.773C358.505 344.289 357.541 347.853 357.541 352.465V381.899H331V318.88H357.163V332.591C359.008 327.895 361.65 324.289 365.088 321.773C368.61 319.258 373.013 318 378.296 318C383.333 318 387.622 319.22 391.163 321.659L392.183 322.38C395.514 324.827 397.887 327.937 399.302 331.711C402.153 327.434 405.508 324.079 409.365 321.647C412.845 319.5 416.947 318.302 421.669 318.051C421.959 318.034 422.252 318.022 422.548 318.014C422.56 318.013 422.573 318.013 422.585 318.013C422.877 318.005 423.172 318 423.47 318H423.579C423.687 318 423.795 318.002 423.902 318.003Z" fill="white"/>
<path d="M617.418 343.928C622.107 346.619 622.107 353.381 617.418 356.072L577.484 378.985C572.817 381.662 567 378.293 567 372.913L567 327.087C567 321.707 572.817 318.338 577.484 321.015L617.418 343.928Z" fill="#FFAA00"/>
</svg>
